<?xml version="1.0" encoding="utf-8"?>
<!-- Generator: Adobe Illustrator 24.0.2, SVG Export Plug-In . SVG Version: 6.00 Build 0)  -->
<svg version="1.1" id="Layer_1" xmlns="http://www.w3.org/2000/svg" xmlns:xlink="http://www.w3.org/1999/xlink" x="0px" y="0px"
	 viewBox="0 0 612 792" style="enable-background:new 0 0 612 792;" xml:space="preserve">
<style type="text/css">
	.st0{clip-path:url(#SVGID_2_);}
	.st1{font-family:'TimesNewRomanPSMT';}
	.st2{font-size:5.5814px;}
	.st3{clip-path:url(#SVGID_4_);}
	.st4{clip-path:url(#SVGID_6_);}
	.st5{clip-path:url(#SVGID_8_);}
	.st6{clip-path:url(#SVGID_10_);}
	.st7{clip-path:url(#SVGID_12_);}
	.st8{clip-path:url(#SVGID_14_);}
	.st9{font-family:'Calibri';}
	.st10{font-size:5.1162px;}
	.st11{clip-path:url(#SVGID_16_);}
	.st12{clip-path:url(#SVGID_18_);}
	.st13{clip-path:url(#SVGID_20_);}
	.st14{clip-path:url(#SVGID_22_);}
	.st15{font-family:'TimesNewRomanPS-ItalicMT';}
	.st16{clip-path:url(#SVGID_24_);}
	.st17{clip-path:url(#SVGID_26_);}
	.st18{clip-path:url(#SVGID_28_);}
	.st19{clip-path:url(#SVGID_30_);}
	.st20{clip-path:url(#SVGID_32_);}
	.st21{clip-path:url(#SVGID_34_);}
	.st22{clip-path:url(#SVGID_36_);}
	.st23{clip-path:url(#SVGID_38_);}
	.st24{clip-path:url(#SVGID_40_);}
	.st25{clip-path:url(#SVGID_42_);}
	.st26{clip-path:url(#SVGID_44_);}
	.st27{clip-path:url(#SVGID_46_);}
	.st28{clip-path:url(#SVGID_48_);}
	.st29{clip-path:url(#SVGID_50_);}
	.st30{clip-path:url(#SVGID_52_);}
	.st31{clip-path:url(#SVGID_54_);}
	.st32{clip-path:url(#SVGID_56_);}
</style>
<g>
	<defs>
		<rect id="SVGID_1_" x="164.5" y="42.9" width="283.1" height="368.4"/>
	</defs>
	<clipPath id="SVGID_2_">
		<use xlink:href="#SVGID_1_"  style="overflow:visible;"/>
	</clipPath>
	<g class="st0">
		<text transform="matrix(0.9945 0 0 1 197.7756 81.7184)"><tspan x="0" y="0" class="st1 st2">Br</tspan><tspan x="5.6" y="0" class="st1 st2">itta</tspan><tspan x="12.6" y="0" class="st1 st2">ny</tspan></text>
	</g>
</g>
<g>
	<defs>
		<rect id="SVGID_3_" x="164.5" y="42.9" width="283.1" height="368.4"/>
	</defs>
	<clipPath id="SVGID_4_">
		<use xlink:href="#SVGID_3_"  style="overflow:visible;"/>
	</clipPath>
	<g class="st3">
		<text transform="matrix(0.9945 0 0 1 215.9421 81.7184)" class="st1 st2"> </text>
	</g>
</g>
<g>
	<defs>
		<rect id="SVGID_5_" x="164.5" y="42.9" width="283.1" height="368.4"/>
	</defs>
	<clipPath id="SVGID_6_">
		<use xlink:href="#SVGID_5_"  style="overflow:visible;"/>
	</clipPath>
	<g class="st4">
		<text transform="matrix(0.9945 0 0 1 197.7756 92.4156)"><tspan x="0" y="0" class="st1 st2">O</tspan><tspan x="4.1" y="0" class="st1 st2">ct</tspan><tspan x="8" y="0" class="st1 st2">ob</tspan><tspan x="13.6" y="0" class="st1 st2">e</tspan><tspan x="16" y="0" class="st1 st2">r 28, 2019</tspan></text>
	</g>
</g>
<g>
	<defs>
		<rect id="SVGID_7_" x="164.5" y="42.9" width="283.1" height="368.4"/>
	</defs>
	<clipPath id="SVGID_8_">
		<use xlink:href="#SVGID_7_"  style="overflow:visible;"/>
	</clipPath>
	<g class="st5">
		<text transform="matrix(0.9945 0 0 1 236.5398 92.4156)" class="st1 st2"> </text>
	</g>
</g>
<g>
	<defs>
		<rect id="SVGID_9_" x="164.5" y="42.9" width="283.1" height="368.4"/>
	</defs>
	<clipPath id="SVGID_10_">
		<use xlink:href="#SVGID_9_"  style="overflow:visible;"/>
	</clipPath>
	<g class="st6">
		<text transform="matrix(0.9945 0 0 1 197.7756 103.0055)"><tspan x="0" y="0" class="st1 st2">P</tspan><tspan x="3.1" y="0" class="st1 st2">a</tspan><tspan x="5.6" y="0" class="st1 st2">g</tspan><tspan x="8.4" y="0" class="st1 st2">e</tspan><tspan x="10.8" y="0" class="st1 st2"> 1 of 3</tspan></text>
	</g>
</g>
<g>
	<defs>
		<rect id="SVGID_11_" x="164.5" y="42.9" width="283.1" height="368.4"/>
	</defs>
	<clipPath id="SVGID_12_">
		<use xlink:href="#SVGID_11_"  style="overflow:visible;"/>
	</clipPath>
	<g class="st7">
		<text transform="matrix(0.9945 0 0 1 222.8816 103.0055)" class="st1 st2"> </text>
	</g>
</g>
<g>
	<defs>
		<rect id="SVGID_13_" x="164.5" y="42.9" width="283.1" height="368.4"/>
	</defs>
	<clipPath id="SVGID_14_">
		<use xlink:href="#SVGID_13_"  style="overflow:visible;"/>
	</clipPath>
	<g class="st8">
		<text transform="matrix(0.9945 0 0 1 197.7756 113.2389)" class="st9 st10"> </text>
	</g>
</g>
<g>
	<defs>
		<rect id="SVGID_15_" x="164.5" y="42.9" width="283.1" height="368.4"/>
	</defs>
	<clipPath id="SVGID_16_">
		<use xlink:href="#SVGID_15_"  style="overflow:visible;"/>
	</clipPath>
	<g class="st11">
		<text transform="matrix(0.9945 0 0 1 197.7756 120.4479)" class="st1 st2"> </text>
	</g>
</g>
<g>
	<defs>
		<rect id="SVGID_17_" x="164.5" y="42.9" width="283.1" height="368.4"/>
	</defs>
	<clipPath id="SVGID_18_">
		<use xlink:href="#SVGID_17_"  style="overflow:visible;"/>
	</clipPath>
	<g class="st12">
		<text transform="matrix(0.9945 0 0 1 210.2761 131.0294)" class="st1 st2"> </text>
	</g>
</g>
<g>
	<defs>
		<rect id="SVGID_19_" x="164.5" y="42.9" width="283.1" height="368.4"/>
	</defs>
	<clipPath id="SVGID_20_">
		<use xlink:href="#SVGID_19_"  style="overflow:visible;"/>
	</clipPath>
	<g class="st13">
		<text transform="matrix(0.9945 0 0 1 210.2761 141.7403)"><tspan x="0" y="0" class="st1 st2">T</tspan><tspan x="3.4" y="0" class="st1 st2">hu</tspan><tspan x="9" y="0" class="st1 st2">s</tspan><tspan x="11.2" y="0" class="st1 st2">, I </tspan><tspan x="17.2" y="0" class="st1 st2">t</tspan><tspan x="18.7" y="0" class="st1 st2">h</tspan><tspan x="21.5" y="0" class="st1 st2">i</tspan><tspan x="23" y="0" class="st1 st2">nk </tspan><tspan x="30" y="0" class="st1 st2">it</tspan><tspan x="33" y="0" class="st1 st2"> </tspan><tspan x="34.5" y="0" class="st1 st2">i</tspan><tspan x="36.1" y="0" class="st1 st2">s</tspan><tspan x="38.3" y="0" class="st1 st2"> no</tspan><tspan x="45.2" y="0" class="st1 st2">t</tspan><tspan x="46.8" y="0" class="st1 st2"> </tspan></text>
	</g>
</g>
<g>
	<defs>
		<rect id="SVGID_21_" x="164.5" y="42.9" width="283.1" height="368.4"/>
	</defs>
	<clipPath id="SVGID_22_">
		<use xlink:href="#SVGID_21_"  style="overflow:visible;"/>
	</clipPath>
	<g class="st14">
		<text transform="matrix(0.9945 0 0 1 258.1638 141.7403)"><tspan x="0" y="0" class="st15 st2">wh</tspan><tspan x="6.5" y="0" class="st15 st2">e</tspan><tspan x="9" y="0" class="st15 st2">r</tspan><tspan x="11.2" y="0" class="st15 st2">e</tspan></text>
	</g>
</g>
<g>
	<defs>
		<rect id="SVGID_23_" x="164.5" y="42.9" width="283.1" height="368.4"/>
	</defs>
	<clipPath id="SVGID_24_">
		<use xlink:href="#SVGID_23_"  style="overflow:visible;"/>
	</clipPath>
	<g class="st16">
		<text transform="matrix(0.9945 0 0 1 271.7019 141.7403)" class="st1 st2"> </text>
	</g>
</g>
<g>
	<defs>
		<rect id="SVGID_25_" x="164.5" y="42.9" width="283.1" height="368.4"/>
	</defs>
	<clipPath id="SVGID_26_">
		<use xlink:href="#SVGID_25_"  style="overflow:visible;"/>
	</clipPath>
	<g class="st17">
		<text transform="matrix(0.9945 0 0 1 273.0896 141.7403)"><tspan x="0" y="0" class="st1 st2">I </tspan><tspan x="3.3" y="0" class="st1 st2">w</tspan><tspan x="7.3" y="0" class="st1 st2">a</tspan><tspan x="9.8" y="0" class="st1 st2">n</tspan><tspan x="12.5" y="0" class="st1 st2">t</tspan><tspan x="14.1" y="0" class="st1 st2"> </tspan><tspan x="15.6" y="0" class="st1 st2">t</tspan><tspan x="17.1" y="0" class="st1 st2">o </tspan><tspan x="21.3" y="0" class="st1 st2">li</tspan><tspan x="24.3" y="0" class="st1 st2">v</tspan><tspan x="27.2" y="0" class="st1 st2">e</tspan><tspan x="29.6" y="0" class="st1 st2">, bu</tspan><tspan x="38" y="0" class="st1 st2">t</tspan><tspan x="39.5" y="0" class="st1 st2"> </tspan></text>
	</g>
</g>
<g>
	<defs>
		<rect id="SVGID_27_" x="164.5" y="42.9" width="283.1" height="368.4"/>
	</defs>
	<clipPath id="SVGID_28_">
		<use xlink:href="#SVGID_27_"  style="overflow:visible;"/>
	</clipPath>
	<g class="st18">
		<text transform="matrix(0.9945 0 0 1 313.8074 141.7403)" class="st15 st2">how </text>
	</g>
</g>
<g>
	<defs>
		<rect id="SVGID_29_" x="164.5" y="42.9" width="283.1" height="368.4"/>
	</defs>
	<clipPath id="SVGID_30_">
		<use xlink:href="#SVGID_29_"  style="overflow:visible;"/>
	</clipPath>
	<g class="st19">
		<text transform="matrix(0.9945 0 0 1 324.4558 141.7403)"><tspan x="0" y="0" class="st1 st2">I</tspan><tspan x="1.9" y="0" class="st1 st2"> </tspan><tspan x="3.4" y="0" class="st1 st2">w</tspan><tspan x="7.4" y="0" class="st1 st2">a</tspan><tspan x="9.9" y="0" class="st1 st2">n</tspan><tspan x="12.7" y="0" class="st1 st2">t</tspan><tspan x="14.2" y="0" class="st1 st2"> </tspan><tspan x="15.6" y="0" class="st1 st2">t</tspan><tspan x="17.1" y="0" class="st1 st2">o </tspan><tspan x="21.3" y="0" class="st1 st2">li</tspan><tspan x="24.3" y="0" class="st1 st2">v</tspan><tspan x="27.2" y="0" class="st1 st2">e</tspan><tspan x="29.6" y="0" class="st1 st2">. I hop</tspan><tspan x="44.1" y="0" class="st1 st2">e</tspan><tspan x="46.5" y="0" class="st1 st2"> </tspan><tspan x="47.9" y="0" class="st1 st2">t</tspan><tspan x="49.4" y="0" class="st1 st2">o </tspan><tspan x="53.6" y="0" class="st1 st2">b</tspan><tspan x="56.5" y="0" class="st1 st2">e</tspan><tspan x="58.9" y="0" class="st1 st2"> gr</tspan><tspan x="65" y="0" class="st1 st2">ate</tspan><tspan x="71.4" y="0" class="st1 st2">f</tspan><tspan x="73.3" y="0" class="st1 st2">u</tspan><tspan x="76.2" y="0" class="st1 st2">l</tspan><tspan x="77.7" y="0" class="st1 st2">, </tspan></text>
	</g>
</g>
<g>
	<defs>
		<rect id="SVGID_31_" x="164.5" y="42.9" width="283.1" height="368.4"/>
	</defs>
	<clipPath id="SVGID_32_">
		<use xlink:href="#SVGID_31_"  style="overflow:visible;"/>
	</clipPath>
	<g class="st20">
		<text transform="matrix(0.9945 0 0 1 197.7756 148.6012)"><tspan x="0" y="0" class="st1 st2">h</tspan><tspan x="2.8" y="0" class="st1 st2">el</tspan><tspan x="6.8" y="0" class="st1 st2">pfu</tspan><tspan x="14.2" y="0" class="st1 st2">l</tspan><tspan x="15.7" y="0" class="st1 st2"> </tspan><tspan x="17.1" y="0" class="st1 st2">a</tspan><tspan x="19.5" y="0" class="st1 st2">nd</tspan><tspan x="25.1" y="0" class="st1 st2"> </tspan><tspan x="26.6" y="0" class="st1 st2">i</tspan><tspan x="28.1" y="0" class="st1 st2">n</tspan><tspan x="30.9" y="0" class="st1 st2">s</tspan><tspan x="33.1" y="0" class="st1 st2">p</tspan><tspan x="35.9" y="0" class="st1 st2">i</tspan><tspan x="37.4" y="0" class="st1 st2">r</tspan><tspan x="39.3" y="0" class="st1 st2">i</tspan><tspan x="40.8" y="0" class="st1 st2">ng, k</tspan><tspan x="52" y="0" class="st1 st2">i</tspan><tspan x="53.5" y="0" class="st1 st2">nd</tspan><tspan x="59.1" y="0" class="st1 st2"> </tspan><tspan x="60.6" y="0" class="st1 st2">t</tspan><tspan x="62.1" y="0" class="st1 st2">o o</tspan><tspan x="69.1" y="0" class="st1 st2">t</tspan><tspan x="70.6" y="0" class="st1 st2">h</tspan><tspan x="73.4" y="0" class="st1 st2">e</tspan><tspan x="75.8" y="0" class="st1 st2">r</tspan><tspan x="77.7" y="0" class="st1 st2">s</tspan><tspan x="79.9" y="0" class="st1 st2">, fu</tspan><tspan x="87.3" y="0" class="st1 st2">l</tspan><tspan x="88.8" y="0" class="st1 st2">f</tspan><tspan x="90.8" y="0" class="st1 st2">il</tspan><tspan x="93.8" y="0" class="st1 st2">l</tspan><tspan x="95.5" y="0" class="st1 st2">e</tspan><tspan x="97.9" y="0" class="st1 st2">d by </tspan><tspan x="109.1" y="0" class="st1 st2">e</tspan><tspan x="111.5" y="0" class="st1 st2">v</tspan><tspan x="114.3" y="0" class="st1 st2">e</tspan><tspan x="116.8" y="0" class="st1 st2">r</tspan><tspan x="118.7" y="0" class="st1 st2">y d</tspan><tspan x="125.7" y="0" class="st1 st2">a</tspan><tspan x="128.1" y="0" class="st1 st2">y, </tspan><tspan x="133.7" y="0" class="st1 st2">c</tspan><tspan x="136.2" y="0" class="st1 st2">h</tspan><tspan x="139" y="0" class="st1 st2">a</tspan><tspan x="141.4" y="0" class="st1 st2">l</tspan><tspan x="143" y="0" class="st1 st2">le</tspan><tspan x="147" y="0" class="st1 st2">ng</tspan><tspan x="152.6" y="0" class="st1 st2">e</tspan><tspan x="155" y="0" class="st1 st2">d</tspan><tspan x="157.8" y="0" class="st1 st2"> </tspan><tspan x="159.3" y="0" class="st1 st2">a</tspan><tspan x="161.7" y="0" class="st1 st2">nd </tspan><tspan x="168.7" y="0" class="st1 st2">c</tspan><tspan x="171.2" y="0" class="st1 st2">h</tspan><tspan x="174" y="0" class="st1 st2">a</tspan><tspan x="176.4" y="0" class="st1 st2">ng</tspan><tspan x="182" y="0" class="st1 st2">e</tspan><tspan x="184.4" y="0" class="st1 st2">d for</tspan><tspan x="195.1" y="0" class="st1 st2"> </tspan><tspan x="196.6" y="0" class="st1 st2">t</tspan><tspan x="198.1" y="0" class="st1 st2">h</tspan><tspan x="200.9" y="0" class="st1 st2">e</tspan><tspan x="203.4" y="0" class="st1 st2"> </tspan></text>
	</g>
</g>
<g>
	<defs>
		<rect id="SVGID_33_" x="164.5" y="42.9" width="283.1" height="368.4"/>
	</defs>
	<clipPath id="SVGID_34_">
		<use xlink:href="#SVGID_33_"  style="overflow:visible;"/>
	</clipPath>
	<g class="st21">
		<text transform="matrix(0.9945 0 0 1 197.7756 155.5782)"><tspan x="0" y="0" class="st1 st2">b</tspan><tspan x="2.8" y="0" class="st1 st2">ette</tspan><tspan x="10.7" y="0" class="st1 st2">r. I</tspan><tspan x="17.2" y="0" class="st1 st2">’</tspan><tspan x="19.2" y="0" class="st1 st2">m</tspan><tspan x="23.5" y="0" class="st1 st2"> qu</tspan><tspan x="30.5" y="0" class="st1 st2">i</tspan><tspan x="32" y="0" class="st1 st2">t</tspan><tspan x="33.6" y="0" class="st1 st2">e</tspan><tspan x="36.1" y="0" class="st1 st2"> </tspan><tspan x="37.5" y="0" class="st1 st2">s</tspan><tspan x="39.7" y="0" class="st1 st2">ur</tspan><tspan x="44.3" y="0" class="st1 st2">e</tspan><tspan x="46.8" y="0" class="st1 st2"> </tspan></text>
	</g>
</g>
<g>
	<defs>
		<rect id="SVGID_35_" x="164.5" y="42.9" width="283.1" height="368.4"/>
	</defs>
	<clipPath id="SVGID_36_">
		<use xlink:href="#SVGID_35_"  style="overflow:visible;"/>
	</clipPath>
	<g class="st22">
		<text transform="matrix(0.9945 0 0 1 245.6746 155.5782)"><tspan x="0" y="0" class="st1 st2">t</tspan><tspan x="1.5" y="0" class="st1 st2">h</tspan><tspan x="4.3" y="0" class="st1 st2">i</tspan><tspan x="5.8" y="0" class="st1 st2">s</tspan><tspan x="8" y="0" class="st1 st2"> </tspan><tspan x="9.4" y="0" class="st1 st2">i</tspan><tspan x="10.9" y="0" class="st1 st2">s</tspan><tspan x="13.1" y="0" class="st1 st2"> no</tspan><tspan x="20.1" y="0" class="st1 st2">t</tspan><tspan x="21.6" y="0" class="st1 st2"> </tspan><tspan x="23.1" y="0" class="st1 st2">t</tspan><tspan x="24.7" y="0" class="st1 st2">h</tspan><tspan x="27.4" y="0" class="st1 st2">e</tspan><tspan x="29.9" y="0" class="st1 st2"> r</tspan><tspan x="33.1" y="0" class="st1 st2">e</tspan><tspan x="35.6" y="0" class="st1 st2">s</tspan><tspan x="37.8" y="0" class="st1 st2">pon</tspan><tspan x="46.2" y="0" class="st1 st2">s</tspan><tspan x="48.4" y="0" class="st1 st2">e</tspan><tspan x="50.8" y="0" class="st1 st2"> you </tspan><tspan x="62" y="0" class="st1 st2">w</tspan><tspan x="66" y="0" class="st1 st2">e</tspan><tspan x="68.5" y="0" class="st1 st2">r</tspan><tspan x="70.4" y="0" class="st1 st2">e</tspan><tspan x="72.9" y="0" class="st1 st2"> </tspan><tspan x="74.3" y="0" class="st1 st2">e</tspan><tspan x="76.7" y="0" class="st1 st2">xp</tspan><tspan x="82.3" y="0" class="st1 st2">e</tspan><tspan x="84.7" y="0" class="st1 st2">c</tspan><tspan x="87.3" y="0" class="st1 st2">ti</tspan><tspan x="90.3" y="0" class="st1 st2">ng, bu</tspan><tspan x="104.3" y="0" class="st1 st2">t</tspan><tspan x="105.8" y="0" class="st1 st2"> I ho</tspan><tspan x="116" y="0" class="st1 st2">p</tspan><tspan x="118.9" y="0" class="st1 st2">e</tspan><tspan x="121.4" y="0" class="st1 st2"> </tspan><tspan x="122.8" y="0" class="st1 st2">it</tspan><tspan x="125.8" y="0" class="st1 st2"> g</tspan><tspan x="130" y="0" class="st1 st2">a</tspan><tspan x="132.4" y="0" class="st1 st2">v</tspan><tspan x="135.3" y="0" class="st1 st2">e</tspan><tspan x="137.8" y="0" class="st1 st2"> you </tspan><tspan x="148.9" y="0" class="st1 st2">a</tspan><tspan x="151.4" y="0" class="st1 st2"> </tspan><tspan x="152.8" y="0" class="st1 st2">l</tspan><tspan x="154.4" y="0" class="st1 st2">it</tspan><tspan x="157.4" y="0" class="st1 st2">t</tspan><tspan x="159.1" y="0" class="st1 st2">le</tspan><tspan x="163" y="0" class="st1 st2"> </tspan></text>
	</g>
</g>
<g>
	<defs>
		<rect id="SVGID_37_" x="164.5" y="42.9" width="283.1" height="368.4"/>
	</defs>
	<clipPath id="SVGID_38_">
		<use xlink:href="#SVGID_37_"  style="overflow:visible;"/>
	</clipPath>
	<g class="st23">
		<text transform="matrix(0.9945 0 0 1 197.7756 162.4386)"><tspan x="0" y="0" class="st1 st2">b</tspan><tspan x="2.8" y="0" class="st1 st2">it</tspan><tspan x="5.8" y="0" class="st1 st2"> of </tspan><tspan x="13.3" y="0" class="st1 st2">i</tspan><tspan x="14.8" y="0" class="st1 st2">n</tspan><tspan x="17.6" y="0" class="st1 st2">s</tspan><tspan x="19.8" y="0" class="st1 st2">i</tspan><tspan x="21.3" y="0" class="st1 st2">gh</tspan><tspan x="26.9" y="0" class="st1 st2">t</tspan><tspan x="28.4" y="0" class="st1 st2"> </tspan><tspan x="29.9" y="0" class="st1 st2">i</tspan><tspan x="31.4" y="0" class="st1 st2">n</tspan><tspan x="34.2" y="0" class="st1 st2">t</tspan><tspan x="35.7" y="0" class="st1 st2">o </tspan><tspan x="39.9" y="0" class="st1 st2">w</tspan><tspan x="44" y="0" class="st1 st2">ho I </tspan><tspan x="54.2" y="0" class="st1 st2">am</tspan><tspan x="60.9" y="0" class="st1 st2">.</tspan></text>
	</g>
</g>
<g>
	<defs>
		<rect id="SVGID_39_" x="164.5" y="42.9" width="283.1" height="368.4"/>
	</defs>
	<clipPath id="SVGID_40_">
		<use xlink:href="#SVGID_39_"  style="overflow:visible;"/>
	</clipPath>
	<g class="st24">
		<text transform="matrix(0.9945 0 0 1 259.8982 162.4386)" class="st1 st2"> </text>
	</g>
</g>
<g>
	<defs>
		<rect id="SVGID_41_" x="164.5" y="42.9" width="283.1" height="368.4"/>
	</defs>
	<clipPath id="SVGID_42_">
		<use xlink:href="#SVGID_41_"  style="overflow:visible;"/>
	</clipPath>
	<g class="st25">
		<text transform="matrix(0.9945 0 0 1 210.2761 172.6798)" class="st9 st10"> </text>
	</g>
</g>
<g>
	<defs>
		<rect id="SVGID_43_" x="164.5" y="42.9" width="283.1" height="368.4"/>
	</defs>
	<clipPath id="SVGID_44_">
		<use xlink:href="#SVGID_43_"  style="overflow:visible;"/>
	</clipPath>
	<g class="st26">
		<text transform="matrix(0.9945 0 0 1 197.7756 179.8893)" class="st1 st2"> </text>
	</g>
</g>
<g>
	<defs>
		<rect id="SVGID_45_" x="164.5" y="42.9" width="283.1" height="368.4"/>
	</defs>
	<clipPath id="SVGID_46_">
		<use xlink:href="#SVGID_45_"  style="overflow:visible;"/>
	</clipPath>
	<g class="st27">
		<text transform="matrix(0.9945 0 0 1 284.7693 190.587)"><tspan x="0" y="0" class="st1 st2">H</tspan><tspan x="4.1" y="0" class="st1 st2">a</tspan><tspan x="6.5" y="0" class="st1 st2">v</tspan><tspan x="9.3" y="0" class="st1 st2">e</tspan><tspan x="11.7" y="0" class="st1 st2"> </tspan><tspan x="13.1" y="0" class="st1 st2">a</tspan><tspan x="15.6" y="0" class="st1 st2"> gr</tspan><tspan x="21.6" y="0" class="st1 st2">e</tspan><tspan x="24.1" y="0" class="st1 st2">a</tspan><tspan x="26.6" y="0" class="st1 st2">t</tspan><tspan x="28.1" y="0" class="st1 st2"> </tspan><tspan x="29.5" y="0" class="st1 st2">w</tspan><tspan x="33.6" y="0" class="st1 st2">ee</tspan><tspan x="38.5" y="0" class="st1 st2">k,</tspan></text>
	</g>
</g>
<g>
	<defs>
		<rect id="SVGID_47_" x="164.5" y="42.9" width="283.1" height="368.4"/>
	</defs>
	<clipPath id="SVGID_48_">
		<use xlink:href="#SVGID_47_"  style="overflow:visible;"/>
	</clipPath>
	<g class="st28">
		<text transform="matrix(0.9945 0 0 1 327.3464 190.587)" class="st1 st2"> </text>
	</g>
</g>
<g>
	<defs>
		<rect id="SVGID_49_" x="164.5" y="42.9" width="283.1" height="368.4"/>
	</defs>
	<clipPath id="SVGID_50_">
		<use xlink:href="#SVGID_49_"  style="overflow:visible;"/>
	</clipPath>
	<g class="st29">
		<text transform="matrix(0.9945 0 0 1 303.1697 201.1685)"><tspan x="0" y="0" class="st1 st2">Br</tspan><tspan x="5.6" y="0" class="st1 st2">itta</tspan><tspan x="12.6" y="0" class="st1 st2">ny</tspan></text>
	</g>
</g>
<g>
	<defs>
		<rect id="SVGID_51_" x="164.5" y="42.9" width="283.1" height="368.4"/>
	</defs>
	<clipPath id="SVGID_52_">
		<use xlink:href="#SVGID_51_"  style="overflow:visible;"/>
	</clipPath>
	<g class="st30">
		<text transform="matrix(0.9945 0 0 1 321.3337 201.1685)" class="st1 st2"> </text>
	</g>
</g>
<g>
	<defs>
		<rect id="SVGID_53_" x="164.5" y="42.9" width="283.1" height="368.4"/>
	</defs>
	<clipPath id="SVGID_54_">
		<use xlink:href="#SVGID_53_"  style="overflow:visible;"/>
	</clipPath>
	<g class="st31">
		<text transform="matrix(0.9945 0 0 1 197.7756 211.4098)" class="st9 st10"> </text>
	</g>
</g>
<g>
	<defs>
		<rect id="SVGID_55_" x="164.5" y="42.9" width="283.1" height="368.4"/>
	</defs>
	<clipPath id="SVGID_56_">
		<use xlink:href="#SVGID_55_"  style="overflow:visible;"/>
	</clipPath>
	<g class="st32">
		<text transform="matrix(0.9945 0 0 1 197.7756 218.1544)" class="st9 st10"> </text>
	</g>
</g>
</svg>
