<?xml version="1.0" encoding="utf-8"?>
<!-- Generator: Adobe Illustrator 24.0.2, SVG Export Plug-In . SVG Version: 6.00 Build 0)  -->
<svg version="1.1" id="Layer_1" xmlns="http://www.w3.org/2000/svg" xmlns:xlink="http://www.w3.org/1999/xlink" x="0px" y="0px"
	 viewBox="0 0 1224 792" style="enable-background:new 0 0 1224 792;" xml:space="preserve">
<style type="text/css">
	.st0{fill:none;stroke:#000000;stroke-width:0.25;stroke-miterlimit:10;}
	.st1{fill:none;stroke:#000000;stroke-width:0.25;stroke-miterlimit:10;stroke-dasharray:1.9894,1.9894;}
	.st2{fill:none;stroke:#000000;stroke-width:0.25;stroke-miterlimit:10;stroke-dasharray:1.988,1.988;}
	.st3{fill:none;stroke:#000000;stroke-width:0.25;stroke-miterlimit:10;stroke-dasharray:1.9832,1.9832;}
	.st4{fill:none;stroke:#000000;stroke-width:0.25;stroke-miterlimit:10;stroke-dasharray:2.0134,2.0134;}
	.st5{fill:none;stroke:#000000;stroke-width:0.25;stroke-miterlimit:10;stroke-dasharray:2.0056,2.0056;}
	.st6{fill:none;stroke:#000000;stroke-width:0.25;stroke-miterlimit:10;stroke-dasharray:2.0057,2.0057;}
	.st7{fill:none;stroke:#000000;stroke-width:0.25;stroke-miterlimit:10;stroke-dasharray:2.006,2.006;}
	.st8{fill:none;stroke:#000000;stroke-width:0.25;stroke-miterlimit:10;stroke-dasharray:2.0061,2.0061;}
	.st9{fill:#003920;}
	.st10{font-family:'Arial-BoldMT';}
	.st11{font-size:24px;}
	.st12{font-family:'ArialMT';}
	.st13{font-size:9px;}
	.st14{fill:#1E8642;}
	.st15{font-size:7.3704px;}
	.st16{font-size:21px;}
	.st17{font-size:10px;}
	.st18{font-size:10.8893px;}
	.st19{fill:none;stroke:#000000;stroke-width:0.25;stroke-miterlimit:10;stroke-dasharray:2.0043,2.0043;}
	.st20{fill:none;stroke:#000000;stroke-width:0.25;stroke-miterlimit:10;stroke-dasharray:1.9947,1.9947;}
	.st21{fill:none;stroke:#000000;stroke-width:0.25;stroke-miterlimit:10;stroke-dasharray:2.0067,2.0067;}
	.st22{fill:none;stroke:#000000;stroke-width:0.25;stroke-miterlimit:10;stroke-dasharray:1.9922,1.9922;}
	.st23{fill:none;stroke:#404040;stroke-width:2;stroke-linecap:round;stroke-miterlimit:10;}
	.st24{fill:#7FB27C;stroke:#7FB27C;stroke-width:2;stroke-linecap:round;stroke-miterlimit:10;}
	.st25{fill:#003920;stroke:#003920;stroke-width:2;stroke-linecap:round;stroke-miterlimit:10;}
	.st26{fill:#1B8359;stroke:#1B8359;stroke-width:2;stroke-linecap:round;stroke-miterlimit:10;}
	.st27{fill:#1B8359;}
	.st28{font-size:16.6364px;}
	.st29{fill:#7FB27C;}
	.st30{fill:none;stroke:#000000;stroke-width:0.5;stroke-miterlimit:10;}
	.st31{font-size:12px;}
	
		.st32{fill-rule:evenodd;clip-rule:evenodd;fill:#ABD7A4;stroke:#DDDDDD;stroke-width:0.25;stroke-linecap:round;stroke-linejoin:round;}
	
		.st33{fill-rule:evenodd;clip-rule:evenodd;fill:#9DD196;stroke:#DDDDDD;stroke-width:0.25;stroke-linecap:round;stroke-linejoin:round;}
	.st34{fill-rule:evenodd;clip-rule:evenodd;fill:#0A4F28;stroke:#DDDDDD;stroke-width:0.25;stroke-miterlimit:3.0042;}
	
		.st35{fill-rule:evenodd;clip-rule:evenodd;fill:#EAF4E5;stroke:#DDDDDD;stroke-width:0.25;stroke-linecap:round;stroke-linejoin:round;}
	
		.st36{fill-rule:evenodd;clip-rule:evenodd;fill:#E6F2E0;stroke:#DDDDDD;stroke-width:0.25;stroke-linecap:round;stroke-linejoin:round;}
	.st37{fill-rule:evenodd;clip-rule:evenodd;fill:#1E8642;stroke:#DDDDDD;stroke-width:0.25;stroke-miterlimit:3.0042;}
	
		.st38{fill-rule:evenodd;clip-rule:evenodd;fill:#59B876;stroke:#DDDDDD;stroke-width:0.25;stroke-linecap:round;stroke-linejoin:round;}
	
		.st39{fill-rule:evenodd;clip-rule:evenodd;fill:#BADEB2;stroke:#DDDDDD;stroke-width:0.25;stroke-linecap:round;stroke-linejoin:round;}
	
		.st40{fill-rule:evenodd;clip-rule:evenodd;fill:#85C883;stroke:#DDDDDD;stroke-width:0.25;stroke-linecap:round;stroke-linejoin:round;}
	.st41{fill-rule:evenodd;clip-rule:evenodd;fill:#DAECD4;stroke:#DDDDDD;stroke-width:0.25;stroke-miterlimit:3.0042;}
	.st42{fill-rule:evenodd;clip-rule:evenodd;fill:#2E984E;stroke:#DDDDDD;stroke-width:0.25;stroke-miterlimit:3.0042;}
	.st43{fill-rule:evenodd;clip-rule:evenodd;fill:#0F793D;stroke:#DDDDDD;stroke-width:0.25;stroke-miterlimit:3.0042;}
	
		.st44{fill-rule:evenodd;clip-rule:evenodd;fill:#F6FAF4;stroke:#DDDDDD;stroke-width:0.25;stroke-linecap:round;stroke-linejoin:round;}
	
		.st45{fill-rule:evenodd;clip-rule:evenodd;fill:#40AB5D;stroke:#DDDDDD;stroke-width:0.25;stroke-linecap:round;stroke-linejoin:round;}
	
		.st46{fill-rule:evenodd;clip-rule:evenodd;fill:#F8FBF6;stroke:#DDDDDD;stroke-width:0.25;stroke-linecap:round;stroke-linejoin:round;}
	
		.st47{fill-rule:evenodd;clip-rule:evenodd;fill:#F6F5F1;stroke:#DDDDDD;stroke-width:0.25;stroke-linecap:round;stroke-linejoin:round;}
	
		.st48{fill-rule:evenodd;clip-rule:evenodd;fill:#2E984E;stroke:#DDDDDD;stroke-width:0.25;stroke-linecap:round;stroke-linejoin:round;}
	
		.st49{fill-rule:evenodd;clip-rule:evenodd;fill:#DAECD4;stroke:#DDDDDD;stroke-width:0.25;stroke-linecap:round;stroke-linejoin:round;}
	
		.st50{fill-rule:evenodd;clip-rule:evenodd;fill:#1E8642;stroke:#DDDDDD;stroke-width:0.25;stroke-linecap:round;stroke-linejoin:round;}
	
		.st51{fill-rule:evenodd;clip-rule:evenodd;fill:#A9D8B3;stroke:#DDDDDD;stroke-width:0.25;stroke-linecap:round;stroke-linejoin:round;}
	
		.st52{fill-rule:evenodd;clip-rule:evenodd;fill:#0A4F28;stroke:#DDDDDD;stroke-width:0.25;stroke-linecap:round;stroke-linejoin:round;}
	
		.st53{fill-rule:evenodd;clip-rule:evenodd;fill:#79B777;stroke:#DDDDDD;stroke-width:0.25;stroke-linecap:round;stroke-linejoin:round;}
	.st54{fill:url(#legend-rect_3_);}
	.st55{fill:#010101;}
	.st56{font-size:7px;}
	.st57{fill:url(#legend-rect_4_);}
	
		.st58{fill-rule:evenodd;clip-rule:evenodd;fill:#93BC9D;stroke:#DDDDDD;stroke-width:0.25;stroke-linecap:round;stroke-linejoin:round;}
	
		.st59{fill-rule:evenodd;clip-rule:evenodd;fill:#ACD79C;stroke:#DDDDDD;stroke-width:0.25;stroke-linecap:round;stroke-linejoin:round;}
	
		.st60{fill-rule:evenodd;clip-rule:evenodd;fill:#63BA76;stroke:#DDDDDD;stroke-width:0.25;stroke-linecap:round;stroke-linejoin:round;}
	
		.st61{fill-rule:evenodd;clip-rule:evenodd;fill:#CCE7D3;stroke:#DDDDDD;stroke-width:0.25;stroke-linecap:round;stroke-linejoin:round;}
	
		.st62{fill-rule:evenodd;clip-rule:evenodd;fill:#55A367;stroke:#DDDDDD;stroke-width:0.25;stroke-linecap:round;stroke-linejoin:round;}
	.st63{fill:url(#legend-rect_5_);}
	.st64{font-size:11px;}
	.st65{font-size:7.6312px;}
	.st66{fill:none;stroke:#000000;stroke-width:0.25;stroke-miterlimit:10;stroke-dasharray:1.9352,1.9352;}
	.st67{fill:#BDE2F2;}
	.st68{fill:none;stroke:#000000;stroke-miterlimit:10;}
	.st69{fill:none;stroke:#FFFFFF;stroke-width:0.5;stroke-miterlimit:10;}
	.st70{fill:#FFFFFF;stroke:#FFFFFF;stroke-width:0.25;stroke-miterlimit:10;}
	.st71{fill:none;stroke:#FFFFFF;stroke-miterlimit:10;}
	.st72{fill:none;stroke:#FFFFFF;stroke-width:0.25;stroke-miterlimit:10;}
	.st73{fill:none;stroke:#000000;stroke-width:0.25;stroke-miterlimit:10;stroke-dasharray:1.8202,1.8202;}
	.st74{fill:none;stroke:#000000;stroke-width:0.25;stroke-miterlimit:10;stroke-dasharray:2.0866,2.0866;}
	.st75{fill:none;stroke:#000000;stroke-width:0.25;stroke-miterlimit:10;stroke-dasharray:2.1571,2.1571;}
	.st76{fill:none;stroke:#000000;stroke-width:0.25;stroke-miterlimit:10;stroke-dasharray:2.2587,2.2587;}
</style>
<g>
	<g>
		<line class="st0" x1="949.2" y1="514.3" x2="950.2" y2="514.3"/>
		<line class="st1" x1="952.2" y1="514.3" x2="1185.9" y2="514.3"/>
		<line class="st0" x1="1186.9" y1="514.3" x2="1187.9" y2="514.3"/>
	</g>
</g>
<g>
	<g>
		<line class="st0" x1="949.3" y1="544.1" x2="950.3" y2="544.1"/>
		<line class="st2" x1="952.3" y1="544.1" x2="1185.9" y2="544.1"/>
		<line class="st0" x1="1186.9" y1="544.1" x2="1187.9" y2="544.1"/>
	</g>
</g>
<g>
	<g>
		<line class="st0" x1="949.9" y1="574.5" x2="950.9" y2="574.5"/>
		<line class="st3" x1="952.9" y1="574.5" x2="1185.9" y2="574.5"/>
		<line class="st0" x1="1186.9" y1="574.5" x2="1187.9" y2="574.5"/>
	</g>
</g>
<g>
	<g>
		<line class="st0" x1="949.8" y1="604.9" x2="950.8" y2="604.9"/>
		<line class="st3" x1="952.8" y1="604.9" x2="1185.8" y2="604.9"/>
		<line class="st0" x1="1186.8" y1="604.9" x2="1187.8" y2="604.9"/>
	</g>
</g>
<g>
	<g>
		<line class="st0" x1="949.1" y1="635.3" x2="950.1" y2="635.3"/>
		<line class="st3" x1="952.1" y1="635.3" x2="1185.1" y2="635.3"/>
		<line class="st0" x1="1186.1" y1="635.3" x2="1187.1" y2="635.3"/>
	</g>
</g>
<g>
	<g>
		<line class="st0" x1="949.1" y1="665.6" x2="950.1" y2="665.6"/>
		<line class="st3" x1="952.1" y1="665.6" x2="1185.1" y2="665.6"/>
		<line class="st0" x1="1186.1" y1="665.6" x2="1187.1" y2="665.6"/>
	</g>
</g>
<g>
	<g>
		<line class="st0" x1="949.3" y1="696.3" x2="950.3" y2="696.3"/>
		<line class="st3" x1="952.3" y1="696.3" x2="1185.3" y2="696.3"/>
		<line class="st0" x1="1186.3" y1="696.3" x2="1187.3" y2="696.3"/>
	</g>
</g>
<g>
	<g>
		<line class="st0" x1="950.8" y1="727.3" x2="951.8" y2="727.3"/>
		<line class="st3" x1="953.7" y1="727.3" x2="1186.8" y2="727.3"/>
		<line class="st0" x1="1187.8" y1="727.3" x2="1188.8" y2="727.3"/>
	</g>
</g>
<g>
	<g>
		<line class="st0" x1="947.5" y1="151.2" x2="948.5" y2="151.2"/>
		<line class="st4" x1="950.5" y1="151.2" x2="1187.1" y2="151.2"/>
		<line class="st0" x1="1188.1" y1="151.2" x2="1189.1" y2="151.2"/>
	</g>
</g>
<g>
	<g>
		<line class="st0" x1="947.5" y1="194.3" x2="948.5" y2="194.3"/>
		<line class="st4" x1="950.5" y1="194.3" x2="1187.1" y2="194.3"/>
		<line class="st0" x1="1188.1" y1="194.3" x2="1189.1" y2="194.3"/>
	</g>
</g>
<g>
	<g>
		<line class="st0" x1="948" y1="236.3" x2="949" y2="236.3"/>
		<line class="st5" x1="951" y1="236.3" x2="1186.7" y2="236.3"/>
		<line class="st0" x1="1187.7" y1="236.3" x2="1188.7" y2="236.3"/>
	</g>
</g>
<g>
	<g>
		<line class="st0" x1="947.7" y1="277.6" x2="948.7" y2="277.6"/>
		<line class="st6" x1="950.7" y1="277.6" x2="1186.4" y2="277.6"/>
		<line class="st0" x1="1187.4" y1="277.6" x2="1188.4" y2="277.6"/>
	</g>
</g>
<g>
	<g>
		<line class="st0" x1="947.9" y1="319.1" x2="948.9" y2="319.1"/>
		<line class="st7" x1="950.9" y1="319.1" x2="1186.6" y2="319.1"/>
		<line class="st0" x1="1187.6" y1="319.1" x2="1188.6" y2="319.1"/>
	</g>
</g>
<g>
	<g>
		<line class="st0" x1="947.7" y1="359.9" x2="948.7" y2="359.9"/>
		<line class="st8" x1="950.7" y1="359.9" x2="1186.4" y2="359.9"/>
		<line class="st0" x1="1187.4" y1="359.9" x2="1188.4" y2="359.9"/>
	</g>
</g>
<text transform="matrix(1 0 0 1 13.6886 45.9708)"><tspan x="0" y="0" class="st9 st10 st11">WHY ARE YOUNG PEOPLE MIGRATING </tspan><tspan x="0" y="28.8" class="st9 st10 st11">FROM JAMAICA MORE THAN ANY OTHER</tspan><tspan x="0" y="57.6" class="st9 st10 st11">AGE GROUP?</tspan></text>
<g>
	<path class="st0" d="M1189.1,399.2"/>
	<path class="st0" d="M948.5,399.2"/>
</g>
<g>
	<g>
		<text transform="matrix(1 0 0 1 939.6425 405.1387)" class="st12 st13">0</text>
		<text transform="matrix(1 0 0 1 924.6263 363.4082)" class="st12 st13">5000</text>
		<text transform="matrix(1 0 0 1 919.621 321.6777)" class="st12 st13">10000</text>
		<text transform="matrix(1 0 0 1 919.621 279.9463)" class="st12 st13">15000</text>
		<text transform="matrix(1 0 0 1 919.621 238.2148)" class="st12 st13">20000</text>
		<text transform="matrix(1 0 0 1 919.621 196.4844)" class="st12 st13">25000</text>
		<text transform="matrix(1 0 0 1 919.621 154.7539)" class="st12 st13">30000</text>
	</g>
</g>
<g>
	<g>
		<g>
			<polygon class="st14" points="957.3,273.1 976.6,273.1 979.6,399.8 957.3,399.8 			"/>
			<polygon class="st14" points="997.5,177.6 1022.4,177.6 1024.9,399.2 995.3,399.2 			"/>
			<polygon class="st14" points="1036.4,202.8 1060.5,202.8 1065.9,399.2 1036.4,399.2 			"/>
			<polygon class="st14" points="1079.5,269.2 1101.1,269.2 1107,399.2 1077.4,399.2 			"/>
			<polygon class="st14" points="1118.5,333 1144.6,333 1148,399.2 1118.5,399.2 			"/>
			<polygon class="st14" points="1159.5,363.4 1186.9,363.4 1189.1,399.2 1159.5,399.2 			"/>
		</g>
	</g>
</g>
<g>
	<text transform="matrix(1 0 0 1 1168.931 408.5288)" class="st12 st13">65+</text>
	<text transform="matrix(1 0 0 1 1121.7377 408.5288)" class="st12 st13">55-64</text>
	<text transform="matrix(1 0 0 1 1080.681 408.5293)" class="st12 st13">45-54</text>
	<text transform="matrix(1 0 0 1 1039.6263 408.5293)" class="st12 st13">35-44</text>
	<text transform="matrix(1 0 0 1 998.5697 408.5283)" class="st12 st13">25-34</text>
	<text transform="matrix(1 0 0 1 956.6093 408.5283)" class="st12 st13">18-24</text>
</g>
<text transform="matrix(1 0 0 1 843.0762 74.8182)"><tspan x="0" y="0" class="st9 st10 st15">                                    </tspan><tspan x="73.7" y="0" class="st9 st10 st16">Age of Jamaican Emigrants</tspan><tspan x="0" y="25.2" class="st9 st10 st16">             to the USA</tspan></text>
<text transform="matrix(1 0 0 1 915.3606 113.3056)"><tspan x="0" y="0" class="st9 st12 st17">A mobile youth survey has found 81 per cent of Jamaicans between</tspan><tspan x="0" y="12" class="st9 st12 st17">the ages of 14 and 40 would migrate if given the opportunity. Below</tspan><tspan x="0" y="24" class="st9 st12 st17">are the numbers of Jamaican migrants to the USA by age groups. </tspan></text>
<g>
	<path class="st0" d="M506.4,748"/>
	<path class="st0" d="M40.1,748"/>
	<g>
		<g>
			<line class="st0" x1="75.9" y1="750.6" x2="75.9" y2="748"/>
			<line class="st0" x1="147.5" y1="750.6" x2="147.5" y2="748"/>
			<line class="st0" x1="290.8" y1="750.6" x2="290.8" y2="748"/>
			<line class="st0" x1="362.5" y1="750.6" x2="362.5" y2="748"/>
			<line class="st0" x1="434.1" y1="750.6" x2="434.1" y2="748"/>
			<line class="st0" x1="506.4" y1="750.5" x2="506.4" y2="747.9"/>
		</g>
	</g>
</g>
<g>
	<g>
		<text transform="matrix(1 0 0 1 26.1631 753.6055)" class="st12 st18">0</text>
		<text transform="matrix(1 0 0 1 12.665 721.6816)" class="st12 st18">5000</text>
		<text transform="matrix(1 0 0 1 6.6099 689.7637)" class="st12 st18">10000</text>
		<text transform="matrix(1 0 0 1 6.6099 657.8438)" class="st12 st18">15000</text>
		<text transform="matrix(1 0 0 1 6.6099 625.9277)" class="st12 st18">20000</text>
		<text transform="matrix(1 0 0 1 6.6094 594.0098)" class="st12 st18">25000</text>
	</g>
	<g>
		<g>
			<g>
				<g>
					<line class="st0" x1="39.5" y1="718" x2="40.5" y2="718"/>
					<line class="st19" x1="42.5" y1="718" x2="506.5" y2="719.7"/>
					<line class="st0" x1="507.5" y1="719.7" x2="508.5" y2="719.7"/>
				</g>
			</g>
			<g>
				<g>
					<line class="st0" x1="40.7" y1="687.1" x2="41.7" y2="687.1"/>
					<line class="st20" x1="43.7" y1="687.1" x2="509.5" y2="687.1"/>
					<line class="st0" x1="510.5" y1="687.1" x2="511.5" y2="687.1"/>
				</g>
			</g>
			<g>
				<g>
					<line class="st0" x1="40.1" y1="653.5" x2="41.1" y2="653.5"/>
					<line class="st21" x1="43.1" y1="653.5" x2="507.6" y2="653.5"/>
					<line class="st0" x1="508.6" y1="653.5" x2="509.6" y2="653.5"/>
				</g>
			</g>
			<g>
				<g>
					<line class="st0" x1="40.1" y1="621.9" x2="41.1" y2="621.9"/>
					<line class="st21" x1="43.1" y1="621.9" x2="507.6" y2="621.9"/>
					<line class="st0" x1="508.6" y1="621.9" x2="509.6" y2="621.9"/>
				</g>
			</g>
			<g>
				<g>
					<line class="st0" x1="40.1" y1="591.5" x2="41.1" y2="591.5"/>
					<line class="st22" x1="43" y1="591.5" x2="508.2" y2="591.5"/>
					<line class="st0" x1="509.2" y1="591.5" x2="510.2" y2="591.5"/>
				</g>
			</g>
		</g>
	</g>
</g>
<g>
	<g>
		<path class="st23" d="M75.9,735.3"/>
		<path class="st23" d="M147.5,734.4"/>
		<path class="st23" d="M147.5,734.4"/>
		<path class="st23" d="M219.2,736"/>
		<path class="st23" d="M219.2,736"/>
		<path class="st23" d="M290.8,737.2"/>
		<path class="st23" d="M290.8,737.2"/>
		<path class="st23" d="M362.5,734.5"/>
		<path class="st23" d="M362.5,734.5"/>
		<path class="st23" d="M434.1,733.2"/>
		<path class="st23" d="M434.1,733.2"/>
		<path class="st23" d="M505.8,732.5"/>
	</g>
</g>
<g>
	<line class="st24" x1="147.5" y1="729.3" x2="75.9" y2="719.3"/>
	<line class="st24" x1="219.2" y1="730.2" x2="147.5" y2="729.3"/>
	<line class="st24" x1="290.8" y1="729.5" x2="219.2" y2="730.2"/>
	<line class="st24" x1="362.5" y1="732.4" x2="290.8" y2="729.5"/>
	<line class="st24" x1="434.1" y1="730.4" x2="362.5" y2="732.4"/>
	<line class="st24" x1="505.8" y1="718.4" x2="434.1" y2="730.4"/>
</g>
<g>
	<line class="st25" x1="147.5" y1="655.9" x2="75.9" y2="662.8"/>
	<line class="st25" x1="219.2" y1="630.9" x2="147.5" y2="655.9"/>
	<line class="st25" x1="290.8" y1="592.8" x2="219.2" y2="630.9"/>
	<line class="st25" x1="362.5" y1="624.3" x2="290.8" y2="592.8"/>
	<line class="st25" x1="434.1" y1="630" x2="362.5" y2="624.3"/>
	<line class="st25" x1="505.8" y1="608.9" x2="434.1" y2="630"/>
</g>
<g>
	<line class="st26" x1="147.5" y1="735.2" x2="75.9" y2="735.2"/>
	<line class="st26" x1="219.2" y1="735.2" x2="147.5" y2="735.2"/>
	<line class="st26" x1="290.8" y1="735.2" x2="219.2" y2="735.2"/>
	<line class="st26" x1="362.5" y1="735.2" x2="290.8" y2="735.2"/>
	<line class="st26" x1="434.1" y1="735.2" x2="362.5" y2="735.2"/>
	<line class="st26" x1="505.8" y1="735.2" x2="434.1" y2="735.2"/>
</g>
<text transform="matrix(1 0 0 1 244.3042 735.167)" class="st27 st12 st28">CA</text>
<text transform="matrix(1 0 0 1 322.0317 729.0029)" class="st29 st12 st28">UK</text>
<text transform="matrix(1 0 0 1 199.5332 619.4873)" class="st9 st12 st28">USA</text>
<path class="st30" d="M222.7,738.2"/>
<path class="st30" d="M215.8,738.2"/>
<line class="st0" x1="219.2" y1="750.6" x2="219.2" y2="748"/>
<text transform="matrix(1 0 0 1 64.5737 762.0254)" class="st12 st18">2003</text>
<text transform="matrix(1 0 0 1 495.2109 762.0254)" class="st12 st18">2009</text>
<text transform="matrix(1 0 0 1 425.626 762.0254)" class="st12 st18">2008</text>
<text transform="matrix(1 0 0 1 352.4604 762.0254)" class="st12 st18">2007</text>
<text transform="matrix(1 0 0 1 279.8916 762.0254)" class="st12 st18">2006</text>
<text transform="matrix(1 0 0 1 208.4502 762.0254)" class="st12 st18">2005</text>
<text transform="matrix(1 0 0 1 136.8379 762.0254)" class="st12 st18">2004</text>
<text transform="matrix(1 0 0 1 -7.9395 517.2661)" class="st9 st10 st16">    Jamaicans migrate to USA, UK and Canada</text>
<text transform="matrix(1 0 0 1 13.6884 537.1082)"><tspan x="0" y="0" class="st9 st12 st31">So, where do Jamaicans move to? Predominately Jamaicans migrate to countries like the United</tspan><tspan x="0" y="14.4" class="st9 st12 st31">States, Canada, and the United Kingdom because they have established Jamaican communities</tspan><tspan x="0" y="28.8" class="st9 st12 st31">as well as stronger economies and higher wages. </tspan></text>
<polygon id="Westmoreland" class="st32" points="627.1,217.6 628.6,220.6 629.4,221.4 629.7,221.6 630,221.8 630.3,222 630.5,222.3 
	630.9,222.9 632,226.2 631.9,227.4 630.6,230.9 628.5,231.9 628.1,232.2 627.4,232.8 625.9,235 625.1,236.7 624.8,237.5 
	624.8,237.9 624.8,238.3 625,239 625.2,239.3 624.8,241.3 622.1,248.4 621.2,250.2 621.2,250.2 619.1,245.7 618,244.2 616.8,243.5 
	615.5,242.8 614.4,242.6 613.5,241.9 612.9,240.3 612,237.1 609.5,232.3 606.1,230.5 596,230.8 589.8,229.8 587.6,229.8 
	586.3,230.9 585.2,231.4 584.3,231.2 581,230 580.6,229.8 578.7,229.5 574.5,228.3 572.1,228 569.7,227.4 569.7,227.4 569.7,227.4 
	569.7,227.4 569.7,227.4 567.1,225.8 568.8,218.1 569,217.3 569,217.3 570.2,217.4 577.6,218.4 578.4,218.4 579.1,218.3 
	579.7,217.8 584.9,212.2 585.7,212 602.6,211.9 603.9,212.1 605.1,212.4 612.6,216.4 615.6,217 "/>
<polygon id="Trelawny" class="st33" points="689.5,193.7 689.5,194 689.2,196.6 689.3,197.7 690.8,201.4 691,202.4 690.8,203.2 
	690.5,204 690.5,204.5 690.7,204.9 691.4,205.7 691.4,206.3 691.4,207 686,230.9 679.9,226.9 677.9,226.1 677.5,226.1 672.2,225.4 
	671.4,225.4 670.7,225.6 669.7,226 668.2,226.9 667.3,227.2 665.6,227.6 646.3,225.8 652.5,189.8 652.5,189.6 662.3,191.6 
	675.6,191.8 681.4,193.1 "/>
<polygon id="Saint_Thomas" class="st34" points="818.2,254 818.8,253.9 819.9,253.5 820.4,253.2 821,252.7 821.3,252.5 821.6,252.3 
	822.2,252.2 824.1,252.2 824.8,252.2 825.3,252 826.2,251.6 826.9,251.3 827.5,251.3 828.1,251.5 831.2,253.1 835.6,253.7 
	839.7,254.8 840.4,255.1 840.7,255.3 840.9,255.6 841.8,256.8 842.2,257.1 842.7,257.6 844.6,258 849.5,258.6 851,258.5 
	854.8,257.4 854.9,257.3 854.9,257.3 856,259.8 858,263 860.6,265.5 864.3,268.1 862.9,269.1 855.8,270.8 850.8,273.3 848,274.1 
	845.5,273.5 846.5,272.8 846.9,272.4 847.4,270.8 844.9,271.6 842.7,274.6 840.3,275.3 838.2,274.7 835.8,273.7 833.2,273.1 
	829.1,274.5 818.4,275.4 810.8,274.3 809.7,274.3 808.7,274.5 807.5,274.4 806.1,273.5 805.5,272.3 805.2,270.8 804.8,269.4 
	803.7,268.9 802.6,268.6 801.9,267.8 801.3,266.9 800.4,266.2 800.1,266.2 800.1,266.2 800.9,265 801.8,264.1 801.9,263.6 
	802,263.1 801.9,261.8 802,261.1 802.7,260.2 803.2,260 803.7,259.9 805.1,260 805.5,259.9 805.7,259.7 805.7,259.2 805.2,258.5 
	804.3,257.2 804,256.7 803.3,254.2 802.9,253.6 802.6,252.9 802.4,252.1 802.4,250.1 802.6,249 802.9,248.2 804.1,247.1 
	806.7,248.7 807.7,250 808,250.3 808.3,250.5 809.2,251.1 810.2,251.5 816.7,253.4 817.6,253.9 "/>
<polygon id="Saint_Mary" class="st35" points="794,221.5 794,221.5 793.6,221.9 787.2,238.5 779.6,235.1 777.3,234.7 776.5,234.9 
	774.8,234.9 773.9,235 773.4,235.2 773.2,235.6 773.1,235.9 772.8,236.3 772.4,236.5 770.6,237.2 767.4,236 765.9,234.7 
	764.3,232.7 764,232.1 763.8,231 763.6,229.9 763,228.9 762.4,228.3 761.4,227.5 760.9,227 760.1,225.1 759.7,224.7 759.2,224.4 
	756.6,224.1 756.2,224.1 755.8,224.2 753.7,224.8 751.1,222.3 750.1,221.2 750,220.9 749.8,220.1 749.6,219 749.1,217.8 
	748.6,216.9 746.9,215.1 746.6,214.6 746.5,214.2 746.8,211.2 746.6,210.7 746.2,210.2 745.5,209.6 745.2,209.1 744.9,208.2 
	744.8,207.5 743.7,202.6 743.6,202 743.6,202 746.1,201.6 747.7,202 750.6,203.2 752.2,203.5 760.3,203.2 761.9,202.4 764.1,202.2 
	765.9,202.3 767.6,202.6 768.5,203.7 768.1,205.1 768.1,206.9 769.6,208.2 774.5,211 778.8,213.3 779.5,214.6 780.8,218.1 
	781.6,219.3 782.9,220 785.4,220.6 792.5,221.2 "/>
<polygon id="Saint_James" class="st36" points="652.5,189.6 652.5,189.8 646.3,225.8 630.6,230.9 631.9,227.4 632,226.2 
	630.9,222.9 630.5,222.3 630.3,222 630,221.8 629.7,221.6 629.4,221.4 628.6,220.6 627.1,217.6 625.4,214.3 625,213.9 624.3,213.3 
	622.4,212.4 621.9,212.1 621.7,211.8 621,210.4 619.4,207.7 619,206.9 618.8,205.9 618.5,205.3 618.3,204.9 616,203.2 615.6,202.7 
	615.3,202.2 616.2,199.2 616.3,198.8 616.3,197.6 616.3,197.6 617.4,197.9 618.9,198.3 620.5,198.1 621.8,197.2 622,196.3 
	621.9,195.3 622.8,193.9 625.9,190.2 627.3,189 629.7,188 635.2,187.2 641.5,187.4 652.5,189.6 "/>
<polygon id="Saint_Elizabeth" class="st37" points="665.6,227.6 666.3,239.5 675.6,275.2 675.9,275.8 675.9,275.8 672.7,275.3 
	654.1,276.3 653.2,276.1 650.3,274.3 645.5,272.1 644.3,271.2 643.7,270.2 642.3,266.8 642,265.8 641.5,264.9 639.1,264.1 
	638.3,263.5 638.1,260.8 638.3,257.4 637.5,254.6 634,253.4 624.5,253.3 622.3,252.6 621.2,250.2 621.2,250.2 622.1,248.4 
	624.8,241.3 625.2,239.3 625,239 624.8,238.3 624.8,237.9 624.8,237.5 625.1,236.7 625.9,235 627.4,232.8 628.1,232.2 628.5,231.9 
	630.6,230.9 646.3,225.8 "/>
<polygon id="Saint_Catherine" class="st38" points="770.6,237.2 770.3,240.7 770.3,241.2 770.5,242 771.5,243.8 771.6,244.4 
	771.6,244.9 771.1,245.9 770.9,246.2 770.7,246.4 770.4,246.6 770.2,246.8 769.7,247.5 769.3,248.6 768.5,251.3 768.3,252.5 
	768.3,253.2 769.3,254 769.4,254.2 769.5,254.4 769.8,255 770,255.3 770.2,255.5 770.5,255.6 770.9,255.6 771.3,255.5 772,255.2 
	772.3,255.2 773.3,256.3 773.7,257.9 773.3,259.2 772.6,260.6 770.9,262.4 770.4,263.4 768.6,263.2 768.1,264.2 767.6,267.2 
	765.1,275.2 763.3,277.6 761.1,278.9 759.3,278.9 758.1,278.4 757,277.7 755.5,277.2 747.9,277.2 747.9,276.2 750.8,275.3 
	749.4,274.1 747.5,271.8 746.1,270.8 744.4,270.2 740.5,269.8 736.9,270.9 734.8,272.1 734.1,265.7 734.2,265.3 734,264.8 
	733.8,264.2 731.2,260.9 731,260.6 730.8,260.2 730.7,259.5 730.6,258.5 730.5,253.8 730.3,253.2 730,252.3 729.2,251 728.5,249.9 
	728.2,249.7 727.7,248.9 727.6,248.4 727.5,247.7 727.9,245.8 728.2,244.6 728.8,243.6 728.2,241.3 724.3,232.2 742.7,230 
	745.5,229 753.7,224.8 755.8,224.2 756.2,224.1 756.6,224.1 759.2,224.4 759.7,224.7 760.1,225.1 760.9,227 761.4,227.5 
	762.4,228.3 763,228.9 763.6,229.9 763.8,231 764,232.1 764.3,232.7 765.9,234.7 767.4,236 "/>
<polygon id="Saint_Ann" class="st39" points="743.6,202 743.7,202.6 744.8,207.5 744.9,208.2 745.2,209.1 745.5,209.6 746.2,210.2 
	746.6,210.7 746.8,211.2 746.5,214.2 746.6,214.6 746.9,215.1 748.6,216.9 749.1,217.8 749.6,219 749.8,220.1 750,220.9 
	750.1,221.2 751.1,222.3 753.7,224.8 745.5,229 742.7,230 724.3,232.2 711.9,232 705.2,230.9 702.6,229.9 701.9,229.8 701.3,229.8 
	696.7,230.8 696.4,230.9 695.4,231.6 694.9,231.9 693.9,232.3 693.3,232.4 692.7,232.4 689.2,231.8 686,230.9 691.4,207 
	691.4,206.3 691.4,205.7 690.7,204.9 690.5,204.5 690.5,204 690.8,203.2 691,202.4 690.8,201.4 689.3,197.7 689.2,196.6 689.5,194 
	689.5,193.7 690.9,193.8 694.5,194.6 697.3,196.2 701.7,195.1 708.7,195.1 715.9,195.9 720.8,197.1 721.5,197.7 722,199.3 
	722.6,199.9 723.4,199.9 724.2,199.6 724.6,199.1 724.5,198.9 730.6,199.9 731.4,200.3 733.7,202.2 734.4,202.6 738.9,202.7 "/>
<polygon id="Saint_Andrew" class="st40" points="787.2,238.5 788,241.2 788.1,241.5 789.3,244.8 789.5,245.1 789.9,245.6 
	790.4,245.9 791.3,246.2 793.1,246.5 794.4,246.3 795.1,246 795.4,245.6 795.7,245 795.9,244.7 796.2,244.5 797.9,244.7 
	804.1,247.1 802.9,248.2 802.6,249 802.4,250.1 802.4,252.1 802.6,252.9 802.9,253.6 803.3,254.2 804,256.7 804.3,257.2 
	805.2,258.5 805.7,259.2 805.7,259.7 805.5,259.9 805.1,260 803.7,259.9 803.2,260 802.7,260.2 802,261.1 801.9,261.8 802,263.1 
	801.9,263.6 801.8,264.1 800.9,265 800.1,266.2 800.1,266.2 796.3,265.3 795.3,264.8 793.2,264 790.3,264.2 785.4,265.3 
	783.3,265.5 776.1,265.3 776.1,264.4 791.2,263.5 790.5,263 791.3,262.6 791.2,260.9 790,258.4 788.7,257.7 786.6,257.3 
	783.1,257.5 782,257.7 780.6,258.3 779.5,258.9 779.3,259.4 778.8,260.6 777.9,260.1 775.5,258.7 773.7,257.9 773.3,256.3 
	772.3,255.2 772,255.2 771.3,255.5 770.9,255.6 770.5,255.6 770.2,255.5 770,255.3 769.8,255 769.5,254.4 769.4,254.2 769.3,254 
	768.3,253.2 768.3,252.5 768.5,251.3 769.3,248.6 769.7,247.5 770.2,246.8 770.4,246.6 770.7,246.4 770.9,246.2 771.1,245.9 
	771.6,244.9 771.6,244.4 771.5,243.8 770.5,242 770.3,241.2 770.3,240.7 770.6,237.2 772.4,236.5 772.8,236.3 773.1,235.9 
	773.2,235.6 773.4,235.2 773.9,235 774.8,234.9 776.5,234.9 777.3,234.7 779.6,235.1 "/>
<polygon id="Portland" class="st41" points="853.9,255.2 854.9,257.3 854.8,257.4 851,258.5 849.5,258.6 844.6,258 842.7,257.6 
	842.2,257.1 841.8,256.8 840.9,255.6 840.7,255.3 840.4,255.1 839.7,254.8 835.6,253.7 831.2,253.1 828.1,251.5 827.5,251.3 
	826.9,251.3 826.2,251.6 825.3,252 824.8,252.2 824.1,252.2 822.2,252.2 821.6,252.3 821.3,252.5 821,252.7 820.4,253.2 
	819.9,253.5 818.8,253.9 818.2,254 817.6,253.9 816.7,253.4 810.2,251.5 809.2,251.1 808.3,250.5 808,250.3 807.7,250 806.7,248.7 
	804.1,247.1 797.9,244.7 796.2,244.5 795.9,244.7 795.7,245 795.4,245.6 795.1,246 794.4,246.3 793.1,246.5 791.3,246.2 
	790.4,245.9 789.9,245.6 789.5,245.1 789.3,244.8 788.1,241.5 788,241.2 787.2,238.5 793.6,221.9 794,221.5 794,221.5 794.8,221.6 
	796.8,222.6 799.4,225.1 801.4,226.3 803.8,226.9 808.3,226.7 810.7,228.2 811.4,228.4 812.1,229 813,229.5 814.1,229.8 
	824.4,229.8 825.1,230.2 826.2,232.1 826.7,232.7 836.7,234.4 842,236.2 842.6,238.9 846.5,242.4 849.5,246.4 "/>
<polygon id="Manchester" class="st42" points="677.5,226.1 677.9,226.1 679.9,226.9 686,230.9 686.3,232.8 701.2,261 701,261.7 
	700.6,262.8 700.6,263.4 700.6,264.3 701,266.1 701.2,266.9 701.4,267.5 702.1,268.3 703.6,269.5 703.9,270 704.1,270.4 704,270.8 
	703.2,273.3 702.9,274.9 702.8,275.3 702.5,275.5 702.3,275.7 701.9,275.8 701.5,275.8 700.3,275.7 699.9,275.8 699.6,275.9 
	699.2,276.3 699.2,276.3 699,276.2 696,275.2 692.8,274.8 690.3,275.7 687.4,277.6 684.5,277.8 678.5,276.2 675.9,275.8 
	675.9,275.8 675.6,275.2 666.3,239.5 665.6,227.6 667.3,227.2 668.2,226.9 669.7,226 670.7,225.6 671.4,225.4 672.2,225.4 "/>
<polygon id="Kingston" class="st43" points="790.5,263 790.2,262.7 789.5,262.1 787.7,261.7 783.6,261.6 780.8,261.7 778.8,260.6 
	779.3,259.4 779.5,258.9 780.6,258.3 782,257.7 783.1,257.5 786.6,257.3 788.7,257.7 790,258.4 791.2,260.9 791.3,262.6 "/>
<polygon id="Hanover" class="st44" points="616.3,197.6 616.3,198.8 616.2,199.2 615.3,202.2 615.6,202.7 616,203.2 618.3,204.9 
	618.5,205.3 618.8,205.9 619,206.9 619.4,207.7 621,210.4 621.7,211.8 621.9,212.1 622.4,212.4 624.3,213.3 625,213.9 625.4,214.3 
	627.1,217.6 615.6,217 612.6,216.4 605.1,212.4 603.9,212.1 602.6,211.9 585.7,212 584.9,212.2 579.7,217.8 579.1,218.3 
	578.4,218.4 577.6,218.4 570.2,217.4 569,217.3 569,217.3 569.2,216.4 569,212.3 569.3,211.2 570.3,209.6 570.5,208.6 570.9,208.1 
	573.1,208 574.4,207.1 575.5,205.6 576.9,204.5 579.2,205.2 580.6,201.5 584.8,197.9 589.7,196.4 593.2,198.9 595.2,196.7 
	597.4,196.6 599.9,197.5 603,198.1 611.9,197.1 614.8,197.1 "/>
<polygon id="Clarendon" class="st45" points="724.1,232.2 728,241.3 728.6,243.6 728.1,244.6 727.7,245.8 727.4,247.7 727.4,248.4 
	727.5,248.9 728.1,249.7 728.3,249.9 729.1,251 729.9,252.3 730.2,253.2 730.4,253.8 730.4,258.5 730.6,259.5 730.7,260.2 
	730.9,260.6 731.1,260.9 733.8,264.2 734,264.8 734.1,265.3 734.1,265.7 734.8,272.1 733.8,272.6 731.5,276.7 730.9,278 732,281.6 
	731,282 729.2,283 728.2,283.3 728.5,284 728.8,285.4 729.1,286.2 727.6,285.6 726.1,285.5 724.6,286 723.3,287 725.7,288.4 
	728.3,288.9 731.1,288.7 733.9,287.9 735.3,292.9 734.9,295.2 731.5,296.2 728.5,296 725.9,295.5 723.3,294.4 711.2,284.6 
	708.7,281.7 698.3,276.3 698.3,276.3 698.7,275.9 699,275.8 699.4,275.7 700.7,275.8 701.1,275.8 701.5,275.7 701.8,275.5 
	702,275.3 702.2,274.9 702.4,273.3 703.3,270.8 703.3,270.4 703.2,270 702.9,269.5 701.3,268.3 700.6,267.5 700.4,266.9 
	700.1,266.1 699.8,264.3 699.8,263.4 699.8,262.8 700.2,261.7 700.4,261 685.1,232.8 684.8,230.9 688.1,231.8 691.7,232.4 
	692.3,232.4 692.9,232.3 693.9,231.9 694.5,231.6 695.4,230.9 695.8,230.8 700.5,229.8 701.1,229.8 701.8,229.9 704.5,230.9 
	711.4,232 "/>
<polygon id="Westmoreland_1_" class="st32" points="630.4,488.2 631.9,491.3 632.6,492.2 633,492.4 633.2,492.6 633.5,492.9 
	633.7,493.1 634.1,493.8 635.1,497.2 635.1,498.6 633.8,502.3 631.8,503.3 631.3,503.7 630.7,504.3 629.3,506.6 628.4,508.4 
	628.2,509.2 628.1,509.7 628.2,510.1 628.4,510.8 628.5,511.1 628.2,513.2 625.6,520.8 624.6,522.6 624.6,522.6 622.6,517.9 
	621.5,516.3 620.4,515.5 619,514.9 618,514.6 617.1,513.8 616.5,512.1 615.7,508.8 613.2,503.7 609.8,501.9 600,502.1 594,501.1 
	591.8,501.1 590.5,502.2 589.5,502.8 588.6,502.6 585.3,501.3 585,501.1 583.1,500.8 579,499.5 576.7,499.2 574.3,498.6 572,497.1 
	570.4,494.9 569.8,492.4 570.5,491.3 572.5,489.9 573.4,488.7 573.6,487.9 573.6,487.9 574.8,488 582,489 582.8,489 583.4,488.9 
	584.1,488.4 589.1,482.5 589.9,482.3 606.5,482.2 607.7,482.4 608.9,482.7 616.3,487 619.2,487.5 "/>
<polygon id="Trelawny_1_" class="st46" points="691.4,462.9 691.4,463.2 691.1,466 691.2,467.1 692.7,471.1 692.8,472.1 
	692.7,472.9 692.3,473.8 692.3,474.3 692.5,474.7 693.2,475.6 693.3,476.2 693.2,476.9 687.9,502.2 682,498 680.1,497.2 
	679.6,497.2 674.5,496.4 673.7,496.4 673,496.6 672,497.1 670.5,498 669.7,498.3 668,498.7 649.1,496.8 655.2,458.8 655.3,458.6 
	664.8,460.7 677.8,460.9 683.5,462.3 "/>
<polygon id="Saint_Thomas_1_" class="st46" points="817.1,526.6 817.8,526.6 818.8,526.2 819.4,525.8 820,525.3 820.2,525 
	820.5,524.9 821.1,524.8 823,524.8 823.6,524.7 824.1,524.6 825,524.1 825.7,523.8 826.2,523.8 826.9,524 829.8,525.7 834.2,526.4 
	838.2,527.6 838.9,527.9 839.1,528.1 839.4,528.3 840.2,529.6 840.6,530 841.1,530.4 842.9,530.9 847.8,531.5 849.2,531.4 
	852.9,530.2 853,530.2 853,530.2 854.1,532.8 856.1,536.1 858.6,538.8 862.2,541.5 860.8,542.7 853.9,544.4 849.1,547.1 
	846.3,547.9 843.9,547.3 844.8,546.6 845.2,546.1 845.7,544.4 843.3,545.3 841.1,548.5 838.8,549.2 836.7,548.6 834.3,547.5 
	831.9,546.8 827.9,548.4 817.3,549.3 809.9,548.1 808.9,548.2 807.8,548.4 806.8,548.2 805.4,547.3 804.8,546 804.5,544.4 
	804.1,543 803,542.4 802,542.1 801.2,541.3 800.6,540.4 799.8,539.6 799.5,539.5 799.5,539.5 800.3,538.3 801.1,537.3 801.3,536.9 
	801.3,536.2 801.3,534.9 801.4,534.1 802,533.2 802.5,533 803,532.9 804.4,533 804.7,532.9 805,532.7 805,532.2 804.5,531.4 
	803.6,530 803.3,529.5 802.6,526.9 802.2,526.3 801.9,525.5 801.7,524.6 801.8,522.5 801.9,521.4 802.2,520.5 803.4,519.4 
	805.9,521.1 806.9,522.5 807.2,522.7 807.5,523 808.3,523.6 809.3,524 815.7,526 816.6,526.6 "/>
<polygon id="Saint_Mary_1_" class="st47" points="793.6,492.3 793.6,492.3 793.2,492.7 786.9,510.3 779.4,506.7 777.2,506.3 
	776.4,506.5 774.7,506.5 773.9,506.6 773.4,506.8 773.2,507.2 773.1,507.5 772.8,507.9 772.5,508.2 770.6,508.9 767.5,507.6 
	766.1,506.2 764.5,504.1 764.2,503.5 764,502.3 763.8,501.2 763.2,500.1 762.7,499.5 761.6,498.7 761.2,498.1 760.4,496.1 
	760,495.6 759.5,495.3 757,495 756.5,495.1 756.2,495.1 754.1,495.8 751.5,493.2 750.7,492 750.5,491.6 750.3,490.9 750.1,489.7 
	749.7,488.4 749.1,487.5 747.5,485.5 747.2,485 747.1,484.6 747.4,481.4 747.2,480.9 746.8,480.4 746.1,479.7 745.8,479.2 
	745.6,478.2 745.5,477.5 744.3,472.3 744.2,471.7 744.2,471.7 746.7,471.3 748.3,471.7 751.1,473 752.6,473.3 760.6,472.9 
	762.1,472.1 764.3,471.9 766.1,472 767.7,472.3 768.6,473.5 768.2,475 768.2,476.9 769.7,478.2 774.5,481.2 778.7,483.7 779.4,485 
	780.6,488.7 781.4,489.9 782.7,490.7 785.1,491.4 792,491.9 "/>
<polygon id="Saint_James_1_" class="st48" points="655.3,458.6 655.2,458.8 649.1,496.8 633.8,502.3 635.1,498.6 635.1,497.2 
	634.1,493.8 633.7,493.1 633.5,492.9 633.2,492.6 633,492.4 632.6,492.2 631.9,491.3 630.4,488.2 628.7,484.7 628.4,484.3 
	627.7,483.7 625.8,482.7 625.4,482.3 625.1,482 624.4,480.5 622.9,477.7 622.5,476.9 622.3,475.9 622,475.2 621.8,474.8 619.6,473 
	619.1,472.4 618.9,471.9 619.8,468.8 619.8,468.4 619.9,467 619.9,467 620.9,467.4 622.4,467.8 623.9,467.5 625.3,466.6 
	625.4,465.6 625.4,464.6 626.2,463.1 629.2,459.2 630.6,458 632.9,456.9 638.4,456 644.5,456.2 655.3,458.6 "/>
<polygon id="Saint_Elizabeth_1_" class="st49" points="668,498.7 668.7,511.3 677.8,549.1 678.1,549.7 678.1,549.7 674.9,549.2 
	656.8,550.2 655.9,550 653.1,548.1 648.4,545.8 647.2,544.9 646.6,543.8 645.3,540.2 645,539.1 644.5,538.2 642.1,537.4 
	641.3,536.7 641.1,533.8 641.4,530.3 640.5,527.3 637.1,526.1 627.9,526 625.7,525.2 624.6,522.6 624.6,522.6 625.6,520.8 
	628.2,513.2 628.5,511.1 628.4,510.8 628.2,510.1 628.1,509.7 628.2,509.2 628.4,508.4 629.3,506.6 630.7,504.3 631.3,503.7 
	631.8,503.3 633.8,502.3 649.1,496.8 "/>
<polygon id="Saint_Catherine_1_" class="st50" points="770.6,508.9 770.3,512.6 770.4,513.1 770.6,514 771.5,515.8 771.6,516.5 
	771.6,517.1 771.1,518.1 771,518.4 770.7,518.6 770.5,518.9 770.2,519.1 769.8,519.8 769.3,521 768.6,523.8 768.4,525 768.4,525.8 
	769.4,526.7 769.5,526.9 769.6,527.1 769.9,527.7 770,528 770.3,528.2 770.6,528.3 771,528.3 771.3,528.3 772,528 772.3,527.9 
	773.3,529.2 773.7,530.8 773.3,532.2 772.7,533.7 771,535.6 770.5,536.6 768.7,536.4 768.2,537.5 767.7,540.7 765.3,549.1 
	763.5,551.6 761.4,553 759.6,553 758.4,552.5 757.4,551.8 755.9,551.2 748.5,551.2 748.5,550.1 751.3,549.2 749.9,547.9 
	748.1,545.5 746.7,544.4 745,543.8 741.2,543.3 737.7,544.6 735.6,545.8 735,539.1 735,538.6 734.9,538 734.7,537.4 732.1,534 
	731.9,533.7 731.8,533.3 731.6,532.4 731.5,531.4 731.5,526.5 731.3,525.8 731,524.9 730.2,523.5 729.5,522.3 729.3,522.1 
	728.7,521.2 728.6,520.7 728.6,520 728.9,518 729.3,516.7 729.8,515.7 729.2,513.2 725.4,503.6 743.4,501.3 746.1,500.3 
	754.1,495.8 756.2,495.1 756.5,495.1 757,495 759.5,495.3 760,495.6 760.4,496.1 761.2,498.1 761.6,498.7 762.7,499.5 763.2,500.1 
	763.8,501.2 764,502.3 764.2,503.5 764.5,504.1 766.1,506.2 767.5,507.6 "/>
<polygon id="Saint_Ann_1_" class="st51" points="744.2,471.7 744.3,472.3 745.5,477.5 745.6,478.2 745.8,479.2 746.1,479.7 
	746.8,480.4 747.2,480.9 747.4,481.4 747.1,484.6 747.2,485 747.5,485.5 749.1,487.5 749.7,488.4 750.1,489.7 750.3,490.9 
	750.5,491.6 750.7,492 751.5,493.2 754.1,495.8 746.1,500.3 743.4,501.3 725.4,503.6 713.3,503.4 706.8,502.2 704.2,501.2 
	703.5,501.1 702.9,501.1 698.4,502.1 698.1,502.3 697.2,503 696.7,503.3 695.7,503.7 695.1,503.8 694.5,503.8 691.1,503.2 
	687.9,502.2 693.2,476.9 693.3,476.2 693.2,475.6 692.5,474.7 692.3,474.3 692.3,473.8 692.7,472.9 692.8,472.1 692.7,471.1 
	691.2,467.1 691.1,466 691.4,463.2 691.4,462.9 692.8,463 696.3,463.9 699,465.5 703.3,464.4 710.1,464.4 717.2,465.2 722,466.5 
	722.6,467.1 723.1,468.8 723.8,469.4 724.5,469.5 725.3,469.1 725.7,468.7 725.6,468.4 731.6,469.4 732.3,469.9 734.6,471.9 
	735.3,472.3 739.6,472.5 "/>
<polygon id="Saint_Andrew_1_" class="st52" points="786.9,510.3 787.7,513.1 787.8,513.5 788.9,517 789.1,517.3 789.5,517.8 
	790,518.1 790.9,518.4 792.6,518.7 794,518.5 794.6,518.2 794.9,517.8 795.2,517.1 795.4,516.8 795.6,516.6 797.4,516.9 
	803.4,519.4 802.2,520.5 801.9,521.4 801.8,522.5 801.7,524.6 801.9,525.5 802.2,526.3 802.6,526.9 803.3,529.5 803.6,530 
	804.5,531.4 805,532.2 805,532.7 804.7,532.9 804.4,533 803,532.9 802.5,533 802,533.2 801.4,534.1 801.3,534.9 801.3,536.2 
	801.3,536.9 801.1,537.3 800.3,538.3 799.5,539.5 799.5,539.5 795.8,538.7 794.8,538.1 792.7,537.3 789.9,537.4 785.1,538.6 
	783,538.8 776.1,538.6 776.1,537.6 790.8,536.7 790.1,536.2 790.9,535.7 790.8,533.9 789.6,531.3 788.3,530.6 786.3,530.2 
	782.9,530.3 781.8,530.6 780.4,531.2 779.4,531.9 779.2,532.4 778.7,533.7 777.8,533.2 775.5,531.6 773.7,530.8 773.3,529.2 
	772.3,527.9 772,528 771.3,528.3 771,528.3 770.6,528.3 770.3,528.2 770,528 769.9,527.7 769.6,527.1 769.5,526.9 769.4,526.7 
	768.4,525.8 768.4,525 768.6,523.8 769.3,521 769.8,519.8 770.2,519.1 770.5,518.9 770.7,518.6 771,518.4 771.1,518.1 771.6,517.1 
	771.6,516.5 771.5,515.8 770.6,514 770.4,513.1 770.3,512.6 770.6,508.9 772.5,508.2 772.8,507.9 773.1,507.5 773.2,507.2 
	773.4,506.8 773.9,506.6 774.7,506.5 776.4,506.5 777.2,506.3 779.4,506.7 "/>
<polygon id="Portland_1_" class="st49" points="852.1,528 853,530.2 852.9,530.2 849.2,531.4 847.8,531.5 842.9,530.9 841.1,530.4 
	840.6,530 840.2,529.6 839.4,528.3 839.1,528.1 838.9,527.9 838.2,527.6 834.2,526.4 829.8,525.7 826.9,524 826.2,523.8 
	825.7,523.8 825,524.1 824.1,524.6 823.6,524.7 823,524.8 821.1,524.8 820.5,524.9 820.2,525 820,525.3 819.4,525.8 818.8,526.2 
	817.8,526.6 817.1,526.6 816.6,526.6 815.7,526 809.3,524 808.3,523.6 807.5,523 807.2,522.7 806.9,522.5 805.9,521.1 803.4,519.4 
	797.4,516.9 795.6,516.6 795.4,516.8 795.2,517.1 794.9,517.8 794.6,518.2 794,518.5 792.6,518.7 790.9,518.4 790,518.1 
	789.5,517.8 789.1,517.3 788.9,517 787.8,513.5 787.7,513.1 786.9,510.3 793.2,492.7 793.6,492.3 793.6,492.3 794.3,492.4 
	796.3,493.5 798.8,496.1 800.8,497.3 803.1,498 807.5,497.8 809.8,499.4 810.6,499.6 811.2,500.2 812.1,500.8 813.2,501.1 
	823.2,501.1 823.9,501.5 825,503.5 825.4,504.1 835.3,506 840.4,507.8 841.1,510.7 844.9,514.4 847.8,518.6 "/>
<polygon id="Manchester_1_" class="st38" points="679.6,497.2 680.1,497.2 682,498 687.9,502.2 688.3,504.3 702.8,534.1 
	702.6,534.9 702.3,536 702.2,536.6 702.3,537.6 702.6,539.5 702.8,540.3 703,540.9 703.7,541.8 705.2,543.1 705.5,543.6 705.6,544 
	705.6,544.5 704.8,547.1 704.5,548.8 704.4,549.2 704.1,549.4 703.9,549.6 703.5,549.7 703.1,549.7 701.9,549.6 701.5,549.7 
	701.2,549.9 700.9,550.2 700.9,550.2 700.7,550.1 697.8,549.1 694.6,548.6 692.2,549.7 689.3,551.6 686.5,551.8 680.7,550.1 
	678.1,549.7 678.1,549.7 677.8,549.1 668.7,511.3 668,498.7 669.7,498.3 670.5,498 672,497.1 673,496.6 673.7,496.4 674.5,496.4 "/>
<polygon id="Kingston_1_" class="st40" points="790.1,536.2 789.8,535.9 789.2,535.2 787.4,534.8 783.4,534.8 780.6,534.8 
	778.7,533.7 779.2,532.4 779.4,531.9 780.4,531.2 781.8,530.6 782.9,530.3 786.3,530.2 788.3,530.6 789.6,531.3 790.8,533.9 
	790.9,535.7 "/>
<polygon id="Hanover_1_" class="st44" points="619.9,467 619.8,468.4 619.8,468.8 618.9,471.9 619.1,472.4 619.6,473 621.8,474.8 
	622,475.2 622.3,475.9 622.5,476.9 622.9,477.7 624.4,480.5 625.1,482 625.4,482.3 625.8,482.7 627.7,483.7 628.4,484.3 
	628.7,484.7 630.4,488.2 619.2,487.5 616.3,487 608.9,482.7 607.7,482.4 606.5,482.2 589.9,482.3 589.1,482.5 584.1,488.4 
	583.4,488.9 582.8,489 582,489 574.8,488 573.6,487.9 573.6,487.9 573.8,486.9 573.6,482.6 573.9,481.4 574.9,479.8 575,478.7 
	575.5,478.2 577.6,478 578.9,477.1 579.9,475.5 581.3,474.4 583.6,475.1 584.9,471.1 589,467.4 593.8,465.8 597.2,468.4 
	599.2,466.1 601.4,466 603.8,466.9 606.9,467.5 615.5,466.5 618.4,466.5 "/>
<polygon id="Clarendon_1_" class="st53" points="725.2,503.6 729.1,513.2 729.6,515.7 729.1,516.7 728.7,518 728.4,520 728.4,520.7 
	728.5,521.2 729.1,522.1 729.3,522.3 730.1,523.5 730.9,524.9 731.2,525.8 731.4,526.5 731.4,531.4 731.5,532.4 731.7,533.3 
	731.8,533.7 732,534 734.7,537.4 734.9,538 735,538.6 735,539.1 735.6,545.8 734.6,546.3 732.4,550.7 731.9,552 732.9,555.9 
	731.9,556.3 730.2,557.3 729.2,557.7 729.5,558.4 729.8,559.9 730.1,560.7 728.6,560.1 727.2,560 725.7,560.5 724.4,561.6 
	726.8,563 729.4,563.6 732,563.4 734.8,562.6 736.2,567.8 735.7,570.2 732.4,571.2 729.5,571.1 727,570.5 724.5,569.4 712.6,559 
	710.1,556 700,550.2 700,550.2 700.4,549.9 700.7,549.7 701.1,549.6 702.3,549.7 702.7,549.7 703.1,549.6 703.4,549.4 703.6,549.2 
	703.8,548.8 704,547.1 704.8,544.5 704.9,544 704.8,543.6 704.5,543.1 702.9,541.8 702.3,540.9 702,540.3 701.8,539.5 701.5,537.6 
	701.4,536.6 701.5,536 701.8,534.9 702,534.1 687.1,504.3 686.8,502.2 690,503.2 693.5,503.8 694.1,503.8 694.7,503.7 695.7,503.3 
	696.2,503 697.2,502.3 697.5,502.1 702.2,501.1 702.7,501.1 703.4,501.2 706.1,502.2 712.8,503.4 "/>
<linearGradient id="legend-rect_3_" gradientUnits="userSpaceOnUse" x1="2.8364" y1="781.1323" x2="3.1667" y2="781.1323" gradientTransform="matrix(255 0 0 -12 36.1406 9527)">
	<stop  offset="0" style="stop-color:#F8FBF5"/>
	<stop  offset="0" style="stop-color:#F8FBF5"/>
	<stop  offset="0.125" style="stop-color:#E6F2E0"/>
	<stop  offset="0.125" style="stop-color:#E6F2E0"/>
	<stop  offset="0.25" style="stop-color:#C8E4BF"/>
	<stop  offset="0.25" style="stop-color:#C8E4BF"/>
	<stop  offset="0.375" style="stop-color:#A2D39A"/>
	<stop  offset="0.375" style="stop-color:#A2D39A"/>
	<stop  offset="0.5" style="stop-color:#76C376"/>
	<stop  offset="0.5" style="stop-color:#76C376"/>
	<stop  offset="0.625" style="stop-color:#42AB5D"/>
	<stop  offset="0.625" style="stop-color:#42AB5D"/>
	<stop  offset="0.75" style="stop-color:#268C45"/>
	<stop  offset="0.75" style="stop-color:#268C45"/>
	<stop  offset="0.875" style="stop-color:#0A6E38"/>
	<stop  offset="0.875" style="stop-color:#0A6E38"/>
	<stop  offset="1" style="stop-color:#0E4421"/>
	<stop  offset="1" style="stop-color:#0E4421"/>
	<stop  offset="1" style="stop-color:#0E4421"/>
	<stop  offset="1" style="stop-color:#0E4421"/>
	<stop  offset="1" style="stop-color:#0E4421"/>
	<stop  offset="1" style="stop-color:#0E4421"/>
	<stop  offset="1" style="stop-color:#0E4421"/>
	<stop  offset="1" style="stop-color:#0E4421"/>
</linearGradient>
<rect id="legend-rect" x="759.4" y="148.9" class="st54" width="84.2" height="9"/>
<g id="legend-labels">
	<text transform="matrix(1 0 0 1 756.5283 165.1944)" class="st55 st12 st56">0</text>
	<text transform="matrix(1 0 0 1 835.0471 165.1945)" class="st55 st12 st56">0.33</text>
</g>
<text transform="matrix(1 0 0 1 559.7777 74.8182)" class="st9 st10 st16">Poverty In Jamaica</text>
<text transform="matrix(1 0 0 1 559.7776 89.4019)"><tspan x="0" y="0" class="st9 st12 st17">Poverty is a big issue in Jamaicas economy and most unemployed</tspan><tspan x="0" y="12" class="st9 st12 st17">people are the ones facing the issue. When people can’t work and</tspan><tspan x="0" y="24" class="st9 st12 st17">afford things, this leads to financial problems, divorce, children losing</tspan><tspan x="0" y="36" class="st9 st12 st17">their education and health, hunger, fights and more which then can</tspan><tspan x="0" y="48" class="st9 st12 st17">lead to poverty.</tspan></text>
<text transform="matrix(1 0 0 1 560.3414 336.2592)" class="st9 st10 st16">Vocational Colleges In Jamaica</text>
<text transform="matrix(1 0 0 1 560.3414 351.2381)"><tspan x="0" y="0" class="st9 st12 st17">To improve Jamaicas economy and increase young Jamaicans</tspan><tspan x="0" y="12" class="st9 st12 st17">employment opportunities the islands focus is on improving the</tspan><tspan x="0" y="24" class="st9 st12 st17">education and training provided to young people, with a greater focus</tspan><tspan x="0" y="36" class="st9 st12 st17">on vocational skills. Vocational college is a relevant platform to</tspan><tspan x="0" y="48" class="st9 st12 st17">respond to the demands of the modern workforce and will become a </tspan><tspan x="0" y="60" class="st9 st12 st17">driving force in propelling the effort to strengthen the economy.</tspan></text>
<linearGradient id="legend-rect_4_" gradientUnits="userSpaceOnUse" x1="2.8386" y1="757.7934" x2="3.169" y2="757.7934" gradientTransform="matrix(255 0 0 -12 36.1406 9527)">
	<stop  offset="0" style="stop-color:#F8FBF5"/>
	<stop  offset="0" style="stop-color:#F8FBF5"/>
	<stop  offset="0.125" style="stop-color:#E6F2E0"/>
	<stop  offset="0.125" style="stop-color:#E6F2E0"/>
	<stop  offset="0.25" style="stop-color:#C8E4BF"/>
	<stop  offset="0.25" style="stop-color:#C8E4BF"/>
	<stop  offset="0.375" style="stop-color:#A2D39A"/>
	<stop  offset="0.375" style="stop-color:#A2D39A"/>
	<stop  offset="0.5" style="stop-color:#76C376"/>
	<stop  offset="0.5" style="stop-color:#76C376"/>
	<stop  offset="0.625" style="stop-color:#42AB5D"/>
	<stop  offset="0.625" style="stop-color:#42AB5D"/>
	<stop  offset="0.75" style="stop-color:#268C45"/>
	<stop  offset="0.75" style="stop-color:#268C45"/>
	<stop  offset="0.875" style="stop-color:#0A6E38"/>
	<stop  offset="0.875" style="stop-color:#0A6E38"/>
	<stop  offset="1" style="stop-color:#0E4421"/>
	<stop  offset="1" style="stop-color:#0E4421"/>
	<stop  offset="1" style="stop-color:#0E4421"/>
	<stop  offset="1" style="stop-color:#0E4421"/>
	<stop  offset="1" style="stop-color:#0E4421"/>
	<stop  offset="1" style="stop-color:#0E4421"/>
	<stop  offset="1" style="stop-color:#0E4421"/>
	<stop  offset="1" style="stop-color:#0E4421"/>
</linearGradient>
<rect id="legend-rect_1_" x="760" y="429" class="st57" width="84.2" height="9"/>
<g id="legend-labels_1_">
	<text transform="matrix(1 0 0 1 757.9778 445.2614)" class="st55 st12 st56">0</text>
	<text transform="matrix(1 0 0 1 838.4955 445.2609)" class="st55 st12 st56">85</text>
</g>
<polygon id="Westmoreland_2_" class="st58" points="632.3,702.5 633.8,705.8 634.6,706.7 635,706.9 635.3,707.1 635.5,707.4 
	635.7,707.7 636.1,708.4 637.2,712 637.1,713.3 635.8,717.2 633.8,718.3 633.3,718.7 632.7,719.3 631.2,721.7 630.3,723.6 
	630.1,724.5 630,724.9 630.1,725.4 630.3,726.1 630.4,726.5 630.1,728.6 627.4,736.6 626.4,738.5 626.4,738.5 624.3,733.5 
	623.2,731.9 622.1,731.1 620.7,730.4 619.6,730.1 618.8,729.3 618.1,727.5 617.3,724.1 614.7,718.8 611.3,716.8 601.2,717.1 
	595,716 592.8,716 591.5,717.2 590.5,717.8 589.5,717.6 586.2,716.2 585.8,716 583.9,715.7 579.7,714.3 577.3,714 574.9,713.4 
	572.6,711.8 570.9,709.5 570.3,707 571,705.7 573.1,704.3 574,703.1 574.2,702.2 574.2,702.2 575.4,702.3 582.8,703.4 583.6,703.4 
	584.3,703.3 584.9,702.7 590.1,696.5 590.9,696.3 607.9,696.2 609.1,696.4 610.3,696.8 617.9,701.2 620.9,701.8 "/>
<polygon id="Trelawny_2_" class="st47" points="694.8,676.1 694.8,676.4 694.5,679.3 694.6,680.5 696.2,684.7 696.3,685.7 
	696.2,686.6 695.8,687.5 695.8,688 696,688.4 696.7,689.4 696.8,690 696.7,690.7 691.3,717.1 685.2,712.8 683.2,711.9 682.8,711.9 
	677.5,711.1 676.7,711.1 676,711.3 675,711.8 673.5,712.7 672.6,713.1 670.9,713.5 651.5,711.5 657.8,671.8 657.8,671.6 
	667.5,673.7 680.9,674 686.7,675.5 "/>
<polygon id="Saint_Thomas_2_" class="st49" points="823.6,742.7 824.2,742.6 825.3,742.2 825.9,741.8 826.5,741.2 826.8,741 
	827.1,740.8 827.6,740.8 829.6,740.8 830.2,740.7 830.7,740.5 831.7,740 832.4,739.7 832.9,739.7 833.6,739.9 836.6,741.7 
	841.1,742.4 845.1,743.6 845.9,744 846.1,744.2 846.3,744.4 847.2,745.8 847.6,746.2 848.2,746.6 850,747.1 855,747.8 856.4,747.6 
	860.3,746.4 860.3,746.4 860.3,746.4 861.4,749.1 863.5,752.6 866,755.4 869.8,758.2 868.3,759.4 861.3,761.2 856.3,764 
	853.4,764.9 851,764.2 851.9,763.5 852.3,763 852.9,761.2 850.4,762.2 848.2,765.5 845.8,766.2 843.7,765.6 841.2,764.5 
	838.7,763.8 834.6,765.4 823.8,766.3 816.2,765.1 815.1,765.2 814.1,765.4 813,765.2 811.5,764.2 810.9,762.9 810.6,761.2 
	810.2,759.8 809.2,759.2 808.1,758.8 807.3,758 806.7,757 805.8,756.2 805.5,756.2 805.5,756.2 806.3,754.8 807.2,753.8 
	807.3,753.4 807.4,752.7 807.3,751.4 807.5,750.5 808.1,749.6 808.6,749.3 809.2,749.2 810.5,749.3 810.9,749.2 811.1,749 
	811.1,748.5 810.7,747.6 809.7,746.2 809.4,745.7 808.7,743 808.3,742.3 808,741.5 807.8,740.6 807.9,738.4 808,737.2 808.3,736.3 
	809.5,735.1 812.1,736.9 813.1,738.3 813.4,738.6 813.7,738.8 814.6,739.5 815.6,740 822.1,742.1 823.1,742.6 "/>
<polygon id="Saint_Mary_2_" class="st59" points="799.4,706.8 799.4,706.8 799,707.3 792.6,725.6 785,721.9 782.7,721.4 
	781.9,721.6 780.2,721.6 779.3,721.7 778.8,722 778.6,722.3 778.5,722.7 778.1,723.1 777.8,723.4 776,724.1 772.7,722.8 
	771.3,721.4 769.7,719.1 769.4,718.5 769.2,717.3 768.9,716.1 768.4,714.9 767.8,714.3 766.7,713.5 766.3,712.8 765.4,710.8 
	765,710.3 764.6,710 762,709.7 761.5,709.7 761.1,709.8 759,710.4 756.4,707.7 755.5,706.5 755.3,706.1 755.1,705.3 754.9,704 
	754.5,702.7 753.9,701.8 752.2,699.7 751.9,699.2 751.9,698.7 752.2,695.4 751.9,694.9 751.6,694.3 750.8,693.6 750.6,693.1 
	750.3,692.1 750.2,691.3 749,685.9 748.9,685.3 748.9,685.3 751.4,684.8 753.1,685.3 755.9,686.6 757.5,686.9 765.7,686.6 
	767.2,685.7 769.5,685.5 771.3,685.6 772.9,685.9 773.9,687.2 773.5,688.7 773.5,690.7 775,692.1 779.9,695.2 784.2,697.8 
	784.9,699.2 786.2,703.1 787,704.3 788.3,705.2 790.8,705.9 797.9,706.4 "/>
<polygon id="Saint_James_2_" class="st38" points="657.8,671.6 657.8,671.8 651.5,711.5 635.8,717.2 637.1,713.3 637.2,712 
	636.1,708.4 635.7,707.7 635.5,707.4 635.3,707.1 635,706.9 634.6,706.7 633.8,705.8 632.3,702.5 630.6,698.9 630.3,698.4 
	629.6,697.8 627.7,696.8 627.2,696.4 626.9,696.1 626.2,694.5 624.7,691.6 624.3,690.7 624.1,689.6 623.7,688.9 623.5,688.5 
	621.3,686.6 620.8,686 620.6,685.5 621.5,682.2 621.5,681.8 621.6,680.4 621.6,680.4 622.6,680.8 624.1,681.2 625.7,680.9 
	627.1,679.9 627.2,679 627.2,677.8 628,676.3 631.1,672.3 632.5,670.9 635,669.8 640.5,668.9 646.8,669.1 657.8,671.6 "/>
<polygon id="Saint_Elizabeth_2_" class="st51" points="670.9,713.5 671.5,726.7 680.9,766.1 681.2,766.8 681.2,766.8 678,766.2 
	659.4,767.3 658.5,767.1 655.6,765.1 650.8,762.7 649.6,761.7 649,760.6 647.6,756.9 647.3,755.7 646.8,754.8 644.3,753.9 
	643.5,753.2 643.3,750.2 643.6,746.5 642.7,743.4 639.3,742.1 629.8,742 627.6,741.2 626.4,738.5 626.4,738.5 627.4,736.6 
	630.1,728.6 630.4,726.5 630.3,726.1 630.1,725.4 630,724.9 630.1,724.5 630.3,723.6 631.2,721.7 632.7,719.3 633.3,718.7 
	633.8,718.3 635.8,717.2 651.5,711.5 "/>
<polygon id="Saint_Catherine_2_" class="st50" points="776,724.1 775.6,728 775.7,728.6 775.9,729.5 776.8,731.4 777,732.1 
	776.9,732.7 776.5,733.7 776.3,734 776.1,734.3 775.8,734.6 775.5,734.8 775.1,735.6 774.7,736.8 773.8,739.7 773.6,741 
	773.7,741.8 774.7,742.7 774.8,742.9 774.9,743.1 775.2,743.8 775.4,744.1 775.6,744.3 775.9,744.5 776.3,744.5 776.7,744.4 
	777.4,744.1 777.7,744 778.7,745.3 779.1,747 778.7,748.5 778,750.1 776.3,752 775.8,753.1 774,752.9 773.5,754 772.9,757.3 
	770.5,766.2 768.7,768.8 766.5,770.2 764.7,770.2 763.5,769.7 762.4,768.9 760.9,768.3 753.3,768.3 753.3,767.2 756.2,766.2 
	754.7,764.9 752.9,762.4 751.4,761.2 749.8,760.6 745.8,760.1 742.2,761.4 740.1,762.7 739.5,755.7 739.5,755.2 739.4,754.6 
	739.2,753.9 736.5,750.3 736.3,750 736.2,749.6 736,748.8 735.9,747.6 735.9,742.5 735.7,741.8 735.3,740.8 734.6,739.4 
	733.8,738.2 733.6,737.9 733,737 732.9,736.5 732.9,735.8 733.2,733.7 733.6,732.3 734.1,731.3 733.6,728.7 729.7,718.6 748,716.2 
	750.8,715.1 759,710.4 761.1,709.8 761.5,709.7 762,709.7 764.6,710 765,710.3 765.4,710.8 766.3,712.8 766.7,713.5 767.8,714.3 
	768.4,714.9 768.9,716.1 769.2,717.3 769.4,718.5 769.7,719.1 771.3,721.4 772.7,722.8 "/>
<polygon id="Saint_Ann_2_" class="st60" points="748.9,685.3 749,685.9 750.2,691.3 750.3,692.1 750.6,693.1 750.8,693.6 
	751.6,694.3 751.9,694.9 752.2,695.4 751.9,698.7 751.9,699.2 752.2,699.7 753.9,701.8 754.5,702.7 754.9,704 755.1,705.3 
	755.3,706.1 755.5,706.5 756.4,707.7 759,710.4 750.8,715.1 748,716.2 729.7,718.6 717.3,718.4 710.6,717.2 707.9,716.1 707.2,716 
	706.6,716 702,717.1 701.7,717.2 700.7,718 700.2,718.3 699.2,718.7 698.6,718.8 698,718.8 694.5,718.2 691.3,717.1 696.7,690.7 
	696.8,690 696.7,689.4 696,688.4 695.8,688 695.8,687.5 696.2,686.6 696.3,685.7 696.2,684.7 694.6,680.5 694.5,679.3 694.8,676.4 
	694.8,676.1 696.2,676.2 699.8,677.1 702.6,678.8 707,677.7 714,677.7 721.2,678.5 726.2,679.8 726.8,680.5 727.3,682.3 728,682.9 
	728.8,682.9 729.5,682.6 729.9,682.1 729.8,681.8 736,682.9 736.7,683.4 739,685.5 739.7,685.9 744.2,686.1 "/>
<polygon id="Saint_Andrew_2_" class="st52" points="792.6,725.6 793.5,728.5 793.5,728.9 794.7,732.6 794.9,732.9 795.3,733.5 
	795.8,733.8 796.7,734.1 798.5,734.4 799.9,734.2 800.5,733.9 800.8,733.5 801.1,732.7 801.3,732.4 801.6,732.2 803.3,732.5 
	809.5,735.1 808.3,736.3 808,737.2 807.9,738.4 807.8,740.6 808,741.5 808.3,742.3 808.7,743 809.4,745.7 809.7,746.2 810.7,747.6 
	811.1,748.5 811.1,749 810.9,749.2 810.5,749.3 809.2,749.2 808.6,749.3 808.1,749.6 807.5,750.5 807.3,751.4 807.4,752.7 
	807.3,753.4 807.2,753.8 806.3,754.8 805.5,756.2 805.5,756.2 801.7,755.2 800.7,754.6 798.6,753.8 795.7,754 790.8,755.1 
	788.7,755.4 781.5,755.1 781.5,754.1 796.6,753.2 795.9,752.6 796.7,752.2 796.6,750.3 795.4,747.6 794.1,746.8 792,746.4 
	788.5,746.5 787.4,746.9 786,747.4 784.9,748.1 784.7,748.7 784.2,750 783.3,749.5 780.9,747.9 779.1,747 778.7,745.3 777.7,744 
	777.4,744.1 776.7,744.4 776.3,744.5 775.9,744.5 775.6,744.3 775.4,744.1 775.2,743.8 774.9,743.1 774.8,742.9 774.7,742.7 
	773.7,741.8 773.6,741 773.8,739.7 774.7,736.8 775.1,735.6 775.5,734.8 775.8,734.6 776.1,734.3 776.3,734 776.5,733.7 
	776.9,732.7 777,732.1 776.8,731.4 775.9,729.5 775.7,728.6 775.6,728 776,724.1 777.8,723.4 778.1,723.1 778.5,722.7 778.6,722.3 
	778.8,722 779.3,721.7 780.2,721.6 781.9,721.6 782.7,721.4 785,721.9 "/>
<polygon id="Portland_2_" class="st61" points="859.4,744.1 860.3,746.4 860.3,746.4 856.4,747.6 855,747.8 850,747.1 848.2,746.6 
	847.6,746.2 847.2,745.8 846.3,744.4 846.1,744.2 845.9,744 845.1,743.6 841.1,742.4 836.6,741.7 833.6,739.9 832.9,739.7 
	832.4,739.7 831.7,740 830.7,740.5 830.2,740.7 829.6,740.8 827.6,740.8 827.1,740.8 826.8,741 826.5,741.2 825.9,741.8 
	825.3,742.2 824.2,742.6 823.6,742.7 823.1,742.6 822.1,742.1 815.6,740 814.6,739.5 813.7,738.8 813.4,738.6 813.1,738.3 
	812.1,736.9 809.5,735.1 803.3,732.5 801.6,732.2 801.3,732.4 801.1,732.7 800.8,733.5 800.5,733.9 799.9,734.2 798.5,734.4 
	796.7,734.1 795.8,733.8 795.3,733.5 794.9,732.9 794.7,732.6 793.5,728.9 793.5,728.5 792.6,725.6 799,707.3 799.4,706.8 
	799.4,706.8 800.2,707 802.2,708 804.9,710.7 806.9,712.1 809.2,712.8 813.7,712.5 816.1,714.2 816.9,714.4 817.6,715.1 
	818.4,715.7 819.5,716 829.8,716 830.5,716.4 831.6,718.5 832.1,719.2 842.2,721.1 847.4,723 848.1,726.1 852,729.9 855,734.3 "/>
<polygon id="Manchester_2_" class="st62" points="682.8,711.9 683.2,711.9 685.2,712.8 691.3,717.1 691.6,719.3 706.5,750.4 
	706.3,751.3 705.9,752.4 705.9,753.1 706,754.1 706.3,756.1 706.5,757 706.7,757.6 707.4,758.5 708.9,759.9 709.2,760.4 
	709.4,760.9 709.3,761.3 708.5,764 708.2,765.8 708.1,766.2 707.9,766.5 707.6,766.7 707.2,766.8 706.8,766.8 705.6,766.6 
	705.2,766.8 704.9,766.9 704.5,767.3 704.5,767.3 704.4,767.2 701.3,766.1 698.1,765.7 695.6,766.7 692.7,768.7 689.8,769 
	683.8,767.2 681.2,766.8 681.2,766.8 680.9,766.1 671.5,726.7 670.9,713.5 672.6,713.1 673.5,712.7 675,711.8 676,711.3 
	676.7,711.1 677.5,711.1 "/>
<polygon id="Kingston_2_" class="st59" points="795.9,752.6 795.6,752.3 794.9,751.6 793.1,751.2 789,751.2 786.2,751.2 784.2,750 
	784.7,748.7 784.9,748.1 786,747.4 787.4,746.9 788.5,746.5 792,746.4 794.1,746.8 795.4,747.6 796.6,750.3 796.7,752.2 "/>
<polygon id="Hanover_2_" class="st47" points="621.6,680.4 621.5,681.8 621.5,682.2 620.6,685.5 620.8,686 621.3,686.6 623.5,688.5 
	623.7,688.9 624.1,689.6 624.3,690.7 624.7,691.6 626.2,694.5 626.9,696.1 627.2,696.4 627.7,696.8 629.6,697.8 630.3,698.4 
	630.6,698.9 632.3,702.5 620.9,701.8 617.9,701.2 610.3,696.8 609.1,696.4 607.9,696.2 590.9,696.3 590.1,696.5 584.9,702.7 
	584.3,703.3 583.6,703.4 582.8,703.4 575.4,702.3 574.2,702.2 574.2,702.2 574.4,701.1 574.2,696.7 574.5,695.4 575.5,693.7 
	575.6,692.6 576.1,692 578.2,691.8 579.6,691 580.7,689.2 582.1,688.1 584.4,688.8 585.8,684.7 590,680.7 594.9,679.1 598.4,681.8 
	600.4,679.4 602.6,679.3 605.1,680.3 608.3,680.9 617.1,679.8 620.1,679.8 "/>
<polygon id="Clarendon_2_" class="st48" points="729.4,718.6 733.4,728.7 733.9,731.3 733.4,732.3 733,733.7 732.7,735.8 
	732.7,736.5 732.9,737 733.4,737.9 733.7,738.2 734.4,739.4 735.2,740.8 735.6,741.8 735.7,742.5 735.8,747.6 735.9,748.8 
	736.1,749.6 736.2,750 736.4,750.3 739.1,753.9 739.4,754.6 739.5,755.2 739.4,755.7 740.1,762.7 739.1,763.3 736.8,767.8 
	736.3,769.2 737.3,773.2 736.3,773.6 734.5,774.7 733.5,775.1 733.9,775.9 734.1,777.4 734.5,778.3 733,777.6 731.4,777.6 
	730,778.1 728.6,779.2 731.1,780.7 733.7,781.3 736.4,781.1 739.2,780.2 740.7,785.7 740.2,788.2 736.8,789.3 733.9,789.1 
	731.3,788.6 728.7,787.3 716.5,776.5 714,773.3 703.7,767.3 703.7,767.3 704.1,766.9 704.3,766.8 704.7,766.6 706,766.8 
	706.4,766.8 706.8,766.7 707.1,766.5 707.3,766.2 707.5,765.8 707.8,764 708.6,761.3 708.6,760.9 708.5,760.4 708.2,759.9 
	706.6,758.5 705.9,757.6 705.7,757 705.5,756.1 705.1,754.1 705.1,753.1 705.1,752.4 705.5,751.3 705.7,750.4 690.5,719.3 
	690.1,717.1 693.4,718.2 697,718.8 697.6,718.8 698.2,718.7 699.2,718.3 699.8,718 700.8,717.2 701.1,717.1 705.8,716 706.4,716 
	707.1,716.1 709.8,717.2 716.7,718.4 "/>
<text transform="matrix(1 0 0 1 559.7773 599.1982)" class="st9 st10 st16">Unemployement In Jamaica</text>
<linearGradient id="legend-rect_5_" gradientUnits="userSpaceOnUse" x1="2.8386" y1="738.8261" x2="3.169" y2="738.8261" gradientTransform="matrix(255 0 0 -12 36.1406 9527)">
	<stop  offset="0" style="stop-color:#F8FBF5"/>
	<stop  offset="0" style="stop-color:#F8FBF5"/>
	<stop  offset="0.125" style="stop-color:#E6F2E0"/>
	<stop  offset="0.125" style="stop-color:#E6F2E0"/>
	<stop  offset="0.25" style="stop-color:#C8E4BF"/>
	<stop  offset="0.25" style="stop-color:#C8E4BF"/>
	<stop  offset="0.375" style="stop-color:#A2D39A"/>
	<stop  offset="0.375" style="stop-color:#A2D39A"/>
	<stop  offset="0.5" style="stop-color:#76C376"/>
	<stop  offset="0.5" style="stop-color:#76C376"/>
	<stop  offset="0.625" style="stop-color:#42AB5D"/>
	<stop  offset="0.625" style="stop-color:#42AB5D"/>
	<stop  offset="0.75" style="stop-color:#268C45"/>
	<stop  offset="0.75" style="stop-color:#268C45"/>
	<stop  offset="0.875" style="stop-color:#0A6E38"/>
	<stop  offset="0.875" style="stop-color:#0A6E38"/>
	<stop  offset="1" style="stop-color:#0E4421"/>
	<stop  offset="1" style="stop-color:#0E4421"/>
	<stop  offset="1" style="stop-color:#0E4421"/>
	<stop  offset="1" style="stop-color:#0E4421"/>
	<stop  offset="1" style="stop-color:#0E4421"/>
	<stop  offset="1" style="stop-color:#0E4421"/>
	<stop  offset="1" style="stop-color:#0E4421"/>
	<stop  offset="1" style="stop-color:#0E4421"/>
</linearGradient>
<rect id="legend-rect_2_" x="760" y="656.6" class="st63" width="84.2" height="9"/>
<g id="legend-labels_2_">
	<text transform="matrix(1 0 0 1 757.9777 672.8687)" class="st55 st12 st56">0</text>
	<text transform="matrix(1 0 0 1 830.5944 672.8687)" class="st55 st12 st56">210.7</text>
</g>
<text transform="matrix(1 0 0 1 559.7775 611.6398)"><tspan x="0" y="0" class="st9 st12 st17">Jamaica’s youth unemployment rate affects the islands ability to </tspan><tspan x="0" y="12" class="st9 st12 st17">achieve prosperity and see economic growth. Young Jamaicans are</tspan><tspan x="0" y="24" class="st9 st12 st17">struggling to find decent work to survive, improve their livelihoods and</tspan><tspan x="0" y="36" class="st9 st12 st17">overall improve the economy.</tspan></text>
<text transform="matrix(0.9837 0 0 1 773.6495 775.1728)"><tspan x="0" y="0" class="st12 st13">St. Andrew</tspan><tspan x="0" y="12" class="st12 st64">    </tspan><tspan x="12.2" y="12" class="st10 st31">210.7</tspan></text>
<text transform="matrix(0.9837 0 0 1 660.7827 660.4271)"><tspan x="0" y="0" class="st12 st13">Trelawny</tspan><tspan x="0" y="12" class="st12 st64">   </tspan><tspan x="9.2" y="12" class="st10 st64">25.4</tspan></text>
<text transform="matrix(1.0856 0 0 1 803.7854 296.1603)"><tspan x="0" y="0" class="st12 st13">St. Thomas</tspan><tspan x="0" y="12" class="st10 st64">     </tspan><tspan x="15.3" y="12" class="st10 st31">0.33</tspan></text>
<text transform="matrix(1.0856 0 0 1 577.3469 173.2823)"><tspan x="0" y="0" class="st12 st13">Hanover</tspan><tspan x="0" y="12" class="st12 st64">   </tspan><tspan x="9.2" y="12" class="st10 st31">0.10</tspan></text>
<text transform="matrix(1.0036 0 0 1 767.5502 558.6409)"><tspan x="0" y="0" class="st12 st13">St. Andrew</tspan><tspan x="0" y="12" class="st10 st65">      </tspan><tspan x="12.7" y="12" class="st10 st31">85</tspan></text>
<g>
	<line x1="672.9" y1="455.1" x2="672.9" y2="482.3"/>
	<g>
		<line class="st0" x1="672.9" y1="455.1" x2="672.9" y2="456.1"/>
		<line class="st66" x1="672.9" y1="458" x2="672.9" y2="480.3"/>
		<line class="st0" x1="672.9" y1="481.3" x2="672.9" y2="482.3"/>
	</g>
</g>
<text transform="matrix(1.0036 0 0 1 815.6183 567.1658)"><tspan x="0" y="0" class="st12 st13">St. Thomas</tspan><tspan x="0" y="12" class="st12 st64">      </tspan><tspan x="18.3" y="12" class="st10 st31">0</tspan></text>
<text transform="matrix(1 0 0 1 655.2551 440.1228)"><tspan x="0" y="0" class="st12 st13">Trelawny</tspan><tspan x="0" y="12" class="st12 st65">     </tspan><tspan x="10.6" y="12" class="st10 st31"> 0</tspan></text>
<text transform="matrix(1 0 0 1 10.9663 782.4258)" class="st12 st56">Graphic designed by Brittany Burnette</text>
<text transform="matrix(1 0 0 1 926.165 784.3776)" class="st12 st56">Data from World Data Info, Statistical Institute of Jamaica, and Education Data Policy Center  </text>
<g>
	<path class="st0" d="M1203.1,745.6"/>
	<path class="st0" d="M951.4,755.9"/>
	<g>
		<g>
			<path class="st0" d="M1203.1,745.2"/>
		</g>
	</g>
</g>
<g>
	<g>
		<text transform="matrix(1.0286 0 0 1 942.3286 757.7892)" class="st12 st13">0</text>
		<text transform="matrix(1.0286 0 0 1 937.1802 729.459)" class="st12 st13">10</text>
		<text transform="matrix(1.0286 0 0 1 937.1802 699.0899)" class="st12 st13">20</text>
		<text transform="matrix(1.0286 0 0 1 937.1802 668.7198)" class="st12 st13">30</text>
		<text transform="matrix(1.0286 0 0 1 937.1802 638.3506)" class="st12 st13">40</text>
		<text transform="matrix(1.0286 0 0 1 937.1802 607.9815)" class="st12 st13">50</text>
		<text transform="matrix(1.0286 0 0 1 937.1802 577.6114)" class="st12 st13">60</text>
		<text transform="matrix(1.0286 0 0 1 937.1802 547.2422)" class="st12 st13">70</text>
		<text transform="matrix(1.0286 0 0 1 937.1802 516.8721)" class="st12 st13">80</text>
	</g>
	<path class="st0" d="M951.4,513"/>
	<path class="st0" d="M951.4,755.9"/>
</g>
<g>
	<g>
		<g>
			<rect x="965.9" y="533.8" class="st14" width="34" height="221.7"/>
			<rect x="1028.9" y="546" class="st14" width="34" height="209.5"/>
			<rect x="1091.8" y="564.2" class="st14" width="34" height="191.3"/>
			<rect x="1154.8" y="609.8" class="st14" width="34" height="145.8"/>
		</g>
	</g>
</g>
<g>
	<text transform="matrix(1.0286 0 0 1 1165.1069 767.9297)" class="st12 st13">JA </text>
	<text transform="matrix(1.0286 0 0 1 1102.3979 767.9297)" class="st12 st13">UK</text>
	<text transform="matrix(1.0286 0 0 1 1036.3452 767.9297)" class="st12 st13">USA</text>
	<text transform="matrix(1.0286 0 0 1 976.4653 767.9297)" class="st12 st13">CA</text>
</g>
<text transform="matrix(1 0 0 1 915.3611 453.0322)" class="st9 st10 st16">Quality of Life</text>
<text transform="matrix(1 0 0 1 915.3607 464.2346)"><tspan x="0" y="0" class="st9 st12 st17">Jamaican migration to Canada, the United States of America, and the</tspan><tspan x="0" y="12" class="st9 st12 st17">United Kingdom are high because they are seeking a better quality</tspan><tspan x="0" y="24" class="st9 st12 st17">life which includes opportunites for employment, better security,</tspan><tspan x="0" y="36" class="st9 st12 st17">education and much more. </tspan></text>
<rect y="114.7" class="st67" width="529.3" height="361.9"/>
<g id="Aexdje_1_">
	
		<image style="overflow:visible;" width="565" height="280" xlink:href="C2C5FADDF5E18C85.png"  transform="matrix(0.9184 0 0 0.9198 4.8877 223.8343)">
	</image>
</g>
<image style="overflow:visible;" width="580" height="386" xlink:href="C2C5FADDF5E18C87.png"  transform="matrix(0.2208 0 0 0.2208 6.178 121.734)">
</image>
<rect x="6.2" y="121.7" class="st68" width="128.1" height="85.2"/>
<text transform="matrix(1 0 0 1 64.5737 652.2363)" class="st10 st31">13,347</text>
<text transform="matrix(1 0 0 1 487.9722 601.0479)" class="st10 st31">21,783</text>
<text transform="matrix(1 0 0 1 62.9607 711.2705)" class="st10 st31">4,500</text>
<text transform="matrix(1 0 0 1 490.1938 711.2705)" class="st10 st31">4,635</text>
<text transform="matrix(1 0 0 1 39.4775 735.9897)" class="st10 st31">1,983</text>
<path class="st69" d="M423.5,400.8c1.5-3.1,1.5-3.1,1.5-3.1l0.6-5l-2.1-3.9h5l-2.5-5.4l5.2-3.5l-3.9-7l3.9-2.3v-7.2h6.6l7,2.9
	l3.9,0.4l4.6,2.7h4.6l6.6,4.3l7,1.2h7.7h4.3l4.4,0.4l7.2,0.8h6.2l9.3,3.9h5h4.6h3.4"/>
<text transform="matrix(1 0 0 1 434.1267 399.1832)" class="st70 st10 st31">Saint Thomas</text>
<path class="st69" d="M423.5,313.4l-12.7,39.2l2.2,2.2c0,0,4.6,9.1,11.5,6.9c2.4,1.8,6.8,1.8,6.8,1.8"/>
<text transform="matrix(1 0 0 1 428.3971 351.2379)" class="st70 st10 st31">Portland</text>
<path class="st69" d="M374.7,389.8c-0.8-5.4-4.2-14.5-5.9-15.7c-1.8-1.2-3.7-1.3-4.6-2.9c-0.8-1.5-0.1-3.3,0.7-5.2
	c1.8-4.6,4.5-6.3,3.9-7.5c-0.7-1.3-4.3-0.3-4.6-1.3c-0.2-0.8,2-1.4,3.6-3.9c0.9-1.5,1.1-3,1.3-4.2c0.5-3.4-1-5-0.3-5.5
	c1.5-1.3,9.5,7.5,13,5.5c1.2-0.7,1.1-2.2,2.6-2.6c2.2-0.6,4.5,2,4.9,1.6c0.6-0.6-3.8-5.5-3.3-6.2c0.4-0.5,3.9,4.3,10.4,6.5
	c2.8,0.9,4.2,0.7,9.1,2.3c2.2,0.7,4,1.4,5.2,1.9"/>
<text transform="matrix(1 0 0 1 372.3361 374.9316)" class="st70 st10 st31">Kingston</text>
<path class="st69" d="M302.1,412.3c-2.8-5.1-2.9-8.8-2.4-11.4c0.5-2.6,1.6-3.9,1.4-6.2c-0.3-3.8-3.7-4.5-5.7-7.6
	c-5-7.8,5.9-17.8,1-25.7c-2-3.2-5.5-4.2-6.2-8.6c-0.1-0.9-0.4-3,0.5-5.2c1.1-2.7,3.1-3.4,2.9-4.8c-0.3-1.7-3.2-1.1-5.2-3.3
	c-2-2.2-0.8-4.4-1.9-10.9c-0.9-5.1-1.8-4.9-1.4-6.2c2-6.7,25.3-5.6,47.5-8.1c2.7-0.3,4-0.5,5.7-1c8.8-2.3,13-7.7,15.2-6.2
	c0.8,0.6,0.2,1.4,1.4,4.8c0.9,2.6,1.7,4.8,3.3,5.2c1.8,0.5,2.7-1.9,5.2-1.9c2.4,0,4.9,2.1,5.2,4.3c0.3,1.8-1.3,2.3-1.4,4.8
	c-0.1,1.6,0.5,1.7,1.9,5.7c1.1,3.3,1.9,6.7,1.9,6.7l0,0c0,0-1.7,6-1.7,6l0,0c0,0,0,0.3-0.1,0.6"/>
<path class="st71" d="M313.7,258.4c6.5,9.4,6.5,13.5,5.2,15.5c-0.9,1.3-2.7,2.3-2.4,3.6c0.4,1.5,3.5,1.1,4.4,3.2
	c0.6,1.4,0,3.5-0.2,3.8c0,0-0.2,0.5-0.2,0.5c1.2,1.5,2.4,2.9,3.6,4.4c2.1-0.1,4,1,4.8,2.8c0.7,1.7-0.1,3.5-0.4,4.4
	c0,0-0.8,5.5,6.3,15.7c0.3,0.4,0.6,0.8,0.6,0.8c0.1,0.1,0.2,0.2,0.3,0.3c0.2,0.2,0.6,0.4,0.7,0.5"/>
<text transform="matrix(1 0 0 1 304.2544 356.0302)"><tspan x="0" y="0" class="st70 st10 st31">Saint</tspan><tspan x="0" y="14.4" class="st70 st10 st31">Catherine</tspan></text>
<text transform="matrix(1 0 0 1 339.6015 284.4139)"><tspan x="0" y="0" class="st70 st10 st31">Saint </tspan><tspan x="0" y="14.4" class="st70 st10 st31">Mary</tspan></text>
<path class="st69" d="M216.4,422.1c5,0,9.9-0.5,11.3-4.3c0.3-1,2.9-10.9,3.8-6.8c0.4,2.2,1.9-5.3,1.3-10.4c-0.1-0.7,0.2-5.4,3.6-8.1
	c2.2-1.8-0.2-17.2-0.4-16.6c-0.8,2.3-3.4-10.5-23.2-48"/>
<text transform="matrix(1 0 0 1 236.0721 371.5282)" class="st70 st10 st31">Clarendon</text>
<path class="st69" d="M212.8,238.2c-1.9,3.8-1.1,8,1.6,9.9c1.9,1.5,3.9-0.3,5.8,1c2.7,2.1,0.1,7.1,2.1,14.7c0.7,2.8,1.8,4.5,2.1,5.2
	c2.3,4.9,1.4,19.7-11.6,58.8"/>
<text transform="matrix(1 0 0 1 238.061 286.1503)" class="st70 st10 st31">Saint Ann</text>
<path class="st69" d="M189,419l-20.5-81.4c-2.3-7.8-2.4-14.2,0-15.9c1.6-1.1,2.8-0.9,2.8-0.9c1.7,0.3,2,1.9,3.4,2
	c1.5,0.1,1.7-1.8,3.4-2c1.6-0.2,2,1.4,4.6,2c1.4,0.3,1.2-0.2,4.6,0c0.2,0,0.4,0,3.4,0.3l0,0c0.8,0.5,1.9,1.1,3.4,1.4
	c2,0.4,2.9,0,4.8,0c2.8,0,2.8,1,8,2.3c1.8,0.5,1.6,0.3,5.2,1c6.3,1.3,5.7,1.6,6.9,1.6c5.1,0,5.6-5.1,12.7-6.8
	c0.7-0.2,3.2-0.7,6.4-0.4c2.7,0.3,4.2,1,6.4,1.7c4.1,1.3,10.4,3.4,15.7,1.3c3.4-1.3,4.7-3.7,6.4-3c2,0.8,1.2,4.5,3,5.1
	c1.8,0.6,2.8-3,7.6-4.7c1.4-0.5,4.2-1.1,7.4-0.8c0.2,0,0.4,0,0.5,0.1"/>
<text transform="matrix(1 0 0 1 171.7725 382.1006)" class="st70 st10 st31">Manchester</text>
<path class="st69" d="M107.3,369.9l5.9-22.5l-8.9-5.5c0,0,2-7.6,10.8-11.4c4.4-5.3,27.6-16.6,27.6-16.6l25.8,7.8"/>
<text transform="matrix(1 0 0 1 115.3344 346.0834)"><tspan x="0" y="0" class="st70 st10 st31">Saint </tspan><tspan x="0" y="14.4" class="st70 st10 st31">Elizabeth</tspan></text>
<line class="st69" x1="147" y1="230.3" x2="142.8" y2="313.9"/>
<text transform="matrix(1 0 0 1 157.6689 279.5508)" class="st70 st10 st31">Trelawny</text>
<path class="st72" d="M85.2,246.4c1.2,6.4,1.2,11.6,1,15.1c-0.3,5.1-1.1,6.5,0,9.1c2.3,5.4,9.5,8.7,10.1,9.1c0.5,5,1.3,9.1,2,12.1
	c1.5,6.5,4,14.1,4,14.1l0,0c2,4.4,4,8.7,6,13.1l0,0c-2,2.3-2.1,3.7-1.8,4.5c0.5,1.6,2.5,1.7,4.5,4.1c1,1.2,1.8,2.5,1.8,2.5
	c0.2,0.4,0.6,0.9,0.7,1.1"/>
<text transform="matrix(1 0 0 1 100.7325 267.3697)"><tspan x="0" y="0" class="st70 st10 st31">Saint </tspan><tspan x="0" y="14.4" class="st70 st10 st31">James</tspan></text>
<polyline class="st69" points="7.3,288.8 24.4,288.8 29.1,283.1 62.8,283.1 76.3,291.1 98.3,291.8 "/>
<text transform="matrix(1 0 0 1 28.5596 272.0916)" class="st70 st10 st31">Hanover</text>
<text transform="matrix(1 0 0 1 14.8091 306.9687)" class="st70 st10 st31">Westmoreland</text>
<g>
	<line x1="784.8" y1="523.5" x2="784.8" y2="550.7"/>
	<g>
		<line class="st0" x1="784.8" y1="523.5" x2="784.8" y2="524.5"/>
		<line class="st66" x1="784.8" y1="526.5" x2="784.8" y2="548.7"/>
		<line class="st0" x1="784.8" y1="549.7" x2="784.8" y2="550.7"/>
	</g>
</g>
<g>
	<line x1="829.2" y1="536.6" x2="829.2" y2="558.6"/>
	<g>
		<line class="st0" x1="829.2" y1="536.6" x2="829.2" y2="537.6"/>
		<line class="st73" x1="829.2" y1="539.4" x2="829.2" y2="556.7"/>
		<line class="st0" x1="829.2" y1="557.6" x2="829.2" y2="558.6"/>
	</g>
</g>
<g>
	<line x1="790.5" y1="740.4" x2="790.5" y2="765.4"/>
	<g>
		<line class="st0" x1="790.5" y1="740.4" x2="790.5" y2="741.4"/>
		<line class="st74" x1="790.5" y1="743.5" x2="790.5" y2="763.4"/>
		<line class="st0" x1="790.5" y1="764.4" x2="790.5" y2="765.4"/>
	</g>
</g>
<g>
	<line x1="678.1" y1="672.4" x2="678.1" y2="693.8"/>
	<g>
		<line class="st0" x1="678.1" y1="672.4" x2="678.1" y2="673.4"/>
		<line class="st75" x1="678.1" y1="675.5" x2="678.1" y2="691.7"/>
		<line class="st0" x1="678.1" y1="692.8" x2="678.1" y2="693.8"/>
	</g>
</g>
<g>
	<line x1="598.1" y1="189.6" x2="598.1" y2="207.4"/>
	<g>
		<line class="st0" x1="598.1" y1="189.6" x2="598.1" y2="190.6"/>
		<line class="st76" x1="598.1" y1="192.9" x2="598.1" y2="205.3"/>
		<line class="st0" x1="598.1" y1="206.4" x2="598.1" y2="207.4"/>
	</g>
</g>
<g>
	<line x1="826.5" y1="267.4" x2="826.5" y2="285.2"/>
	<g>
		<line class="st0" x1="826.5" y1="267.4" x2="826.5" y2="268.4"/>
		<line class="st76" x1="826.5" y1="270.6" x2="826.5" y2="283.1"/>
		<line class="st0" x1="826.5" y1="284.2" x2="826.5" y2="285.2"/>
	</g>
</g>
<path class="st9" d="M75.9,668.6L75.9,668.6c-3.2,0-5.8-2.6-5.8-5.8l0,0c0-3.2,2.6-5.8,5.8-5.8h0c3.2,0,5.8,2.6,5.8,5.8l0,0
	C81.7,666,79.1,668.6,75.9,668.6z"/>
<path class="st9" d="M505.8,614.8L505.8,614.8c-3.2,0-5.8-2.6-5.8-5.8l0,0c0-3.2,2.6-5.8,5.8-5.8h0c3.2,0,5.8,2.6,5.8,5.8l0,0
	C511.6,612.1,509,614.8,505.8,614.8z"/>
<path class="st29" d="M505.8,724.7L505.8,724.7c-3.2,0-5.8-2.6-5.8-5.8l0,0c0-3.2,2.6-5.8,5.8-5.8h0c3.2,0,5.8,2.6,5.8,5.8l0,0
	C511.6,722,509,724.7,505.8,724.7z"/>
<path class="st29" d="M75.9,725.1L75.9,725.1c-3.2,0-5.8-2.6-5.8-5.8l0,0c0-3.2,2.6-5.8,5.8-5.8h0c3.2,0,5.8,2.6,5.8,5.8l0,0
	C81.7,722.5,79.1,725.1,75.9,725.1z"/>
<path class="st27" d="M75.9,741L75.9,741c-3.2,0-5.8-2.6-5.8-5.8l0,0c0-3.2,2.6-5.8,5.8-5.8h0c3.2,0,5.8,2.6,5.8,5.8l0,0
	C81.7,738.4,79.1,741,75.9,741z"/>
<path class="st27" d="M505.8,741L505.8,741c-3.2,0-5.8-2.6-5.8-5.8l0,0c0-3.2,2.6-5.8,5.8-5.8h0c3.2,0,5.8,2.6,5.8,5.8l0,0
	C511.6,738.4,509,741,505.8,741z"/>
<text transform="matrix(1 0 0 1 499.9488 734.5214)" class="st10 st31">2,430</text>
</svg>
